<?xml version="1.0" encoding="UTF-8" standalone="no"?>
<!-- Created with Inkscape (http://www.inkscape.org/) -->

<svg
   xmlns:dc="http://purl.org/dc/elements/1.1/"
   xmlns:cc="http://creativecommons.org/ns#"
   xmlns:rdf="http://www.w3.org/1999/02/22-rdf-syntax-ns#"
   xmlns:svg="http://www.w3.org/2000/svg"
   xmlns="http://www.w3.org/2000/svg"
   xmlns:sodipodi="http://sodipodi.sourceforge.net/DTD/sodipodi-0.dtd"
   xmlns:inkscape="http://www.inkscape.org/namespaces/inkscape"
   width="488.57144"
   height="86.028748"
   id="svg6373"
   version="1.1"
   inkscape:version="0.48.4 r9939"
   sodipodi:docname="New document 11">
  <defs
     id="defs6375">
    <clipPath
       clipPathUnits="userSpaceOnUse"
       id="clipPath1654">
      <path
         inkscape:connector-curvature="0"
         d="M 0,792 612,792 612,0 0,0 0,792 z"
         id="path1656" />
    </clipPath>
    <clipPath
       clipPathUnits="userSpaceOnUse"
       id="clipPath1514">
      <path
         inkscape:connector-curvature="0"
         d="m 471.647,540.813 -371.181,-0.005 c -1.719,0 -2.408,-1.134 -1.739,-2.564 l 0,0 17.323,-28.959 c 0.951,-1.59 0.951,-4.18 0,-5.762 l 0,0 -17.211,-28.652 c -0.951,-1.582 -0.216,-2.88 1.627,-2.88 l 0,0 371.237,0.003 c 1.85,0 4.141,1.291 5.092,2.879 l 0,0 17.203,28.645 c 0.953,1.587 0.953,4.177 0,5.76 l 0,0 -17.203,28.654 c -0.951,1.582 -3.242,2.881 -5.092,2.881 l 0,0 -0.056,0 z"
         id="path1516" />
    </clipPath>
    <clipPath
       clipPathUnits="userSpaceOnUse"
       id="clipPath814">
      <path
         inkscape:connector-curvature="0"
         d="M 0,792 612,792 612,0 0,0 0,792 z"
         id="path816" />
    </clipPath>
    <clipPath
       clipPathUnits="userSpaceOnUse"
       id="clipPath822">
      <path
         inkscape:connector-curvature="0"
         d="m 112.204,509.279 15.463,0 0,-23.49 -15.463,0 0,23.49 z"
         id="path824" />
    </clipPath>
    <clipPath
       clipPathUnits="userSpaceOnUse"
       id="clipPath826">
      <path
         inkscape:connector-curvature="0"
         d="m 126.975,491.195 -10.925,18.084 c 0.951,-1.582 0.951,-4.174 0,-5.761 l -3.846,-6.405 14.908,-11.324 c 0.775,1.602 0.748,3.93 -0.137,5.406"
         id="path828" />
    </clipPath>
    <mask
       maskUnits="userSpaceOnUse"
       x="0"
       y="0"
       width="1"
       height="1"
       id="mask840">
      <g
         id="g842">
        <g
           clip-path="url(#clipPath830)"
           id="g844">
          <g
             id="g846">
            <g
               id="g848">
              <path
                 inkscape:connector-curvature="0"
                 d="m -32768,32767 65535,0 0,-65535 -65535,0 0,65535 z"
                 style="fill:url(#linearGradient834);stroke:none"
                 id="path850" />
            </g>
          </g>
        </g>
      </g>
    </mask>
    <clipPath
       clipPathUnits="userSpaceOnUse"
       id="clipPath830">
      <path
         inkscape:connector-curvature="0"
         d="m -32768,32767 65535,0 0,-65535 -65535,0 0,65535 z"
         id="path832" />
    </clipPath>
    <linearGradient
       x1="0"
       y1="0"
       x2="1"
       y2="0"
       gradientUnits="userSpaceOnUse"
       gradientTransform="matrix(-19.367102,-1.7e-6,-1.7e-6,19.367102,131.15332,497.53418)"
       spreadMethod="pad"
       id="linearGradient834">
      <stop
         style="stop-opacity:0.2;stop-color:#ffffff"
         offset="0"
         id="stop836" />
      <stop
         style="stop-opacity:0.25000381;stop-color:#ffffff"
         offset="1"
         id="stop838" />
    </linearGradient>
    <linearGradient
       x1="0"
       y1="0"
       x2="1"
       y2="0"
       gradientUnits="userSpaceOnUse"
       gradientTransform="matrix(-19.367102,-1.7e-6,-1.7e-6,19.367102,131.15332,497.53418)"
       spreadMethod="pad"
       id="linearGradient852">
      <stop
         style="stop-opacity:1;stop-color:#231f20"
         offset="0"
         id="stop854" />
      <stop
         style="stop-opacity:1;stop-color:#f1f2f2"
         offset="1"
         id="stop856" />
    </linearGradient>
    <clipPath
       clipPathUnits="userSpaceOnUse"
       id="clipPath880">
      <path
         inkscape:connector-curvature="0"
         d="m 98.4219,540.812 40.0531,0 0,-68.822 -40.0531,0 0,68.822 z"
         id="path882" />
    </clipPath>
    <clipPath
       clipPathUnits="userSpaceOnUse"
       id="clipPath884">
      <path
         inkscape:connector-curvature="0"
         d="m 137.761,509.279 -17.21,28.653 c -0.951,1.582 -3.241,2.88 -5.085,2.88 l -7.785,0 -7.208,0 c -1.851,0 -2.585,-1.298 -1.634,-2.88 l 17.211,-28.653 c 0.951,-1.582 0.951,-4.174 0,-5.761 L 98.728,474.557 c -0.669,-1.432 0.026,-2.567 1.745,-2.567 l 7.204,0 7.789,0 c 1.844,0 4.134,1.293 5.085,2.881 l 13.401,22.303 3.809,6.344 c 0.952,1.587 0.952,4.179 0,5.761"
         id="path886" />
    </clipPath>
    <mask
       maskUnits="userSpaceOnUse"
       x="0"
       y="0"
       width="1"
       height="1"
       id="mask898">
      <g
         id="g900">
        <g
           clip-path="url(#clipPath888)"
           id="g902">
          <g
             id="g904">
            <g
               id="g906">
              <path
                 inkscape:connector-curvature="0"
                 d="m -32768,32767 65535,0 0,-65535 -65535,0 0,65535 z"
                 style="fill:url(#radialGradient892);stroke:none"
                 id="path908" />
            </g>
          </g>
        </g>
      </g>
    </mask>
    <clipPath
       clipPathUnits="userSpaceOnUse"
       id="clipPath888">
      <path
         inkscape:connector-curvature="0"
         d="m -32768,32767 65535,0 0,-65535 -65535,0 0,65535 z"
         id="path890" />
    </clipPath>
    <radialGradient
       fx="0"
       fy="0"
       cx="0"
       cy="0"
       r="1"
       gradientUnits="userSpaceOnUse"
       gradientTransform="matrix(28.152988,0,0,-28.152988,118.44824,506.40137)"
       spreadMethod="pad"
       id="radialGradient892">
      <stop
         style="stop-opacity:0.09999237;stop-color:#ffffff"
         offset="0"
         id="stop894" />
      <stop
         style="stop-opacity:0;stop-color:#ffffff"
         offset="1"
         id="stop896" />
    </radialGradient>
    <radialGradient
       fx="0"
       fy="0"
       cx="0"
       cy="0"
       r="1"
       gradientUnits="userSpaceOnUse"
       gradientTransform="matrix(28.152988,0,0,-28.152988,118.44824,506.40137)"
       spreadMethod="pad"
       id="radialGradient910">
      <stop
         style="stop-opacity:1;stop-color:#ffffff"
         offset="0"
         id="stop912" />
      <stop
         style="stop-opacity:1;stop-color:#ffffff"
         offset="1"
         id="stop914" />
    </radialGradient>
    <clipPath
       clipPathUnits="userSpaceOnUse"
       id="clipPath794">
      <path
         inkscape:connector-curvature="0"
         d="m 107.68,540.813 26.272,-43.64 3.808,6.345 c 0.952,1.587 0.952,4.179 0,5.761 l 0,0 -17.209,28.653 c -0.952,1.582 -3.241,2.881 -5.086,2.881 l 0,0 -7.785,0 z"
         id="path796" />
    </clipPath>
    <radialGradient
       fx="0"
       fy="0"
       cx="0"
       cy="0"
       r="1"
       gradientUnits="userSpaceOnUse"
       gradientTransform="matrix(38.319572,-70.665268,-70.665268,-38.319572,96.853516,542.22363)"
       spreadMethod="pad"
       id="radialGradient802">
      <stop
         style="stop-opacity:1;stop-color:#e04a3f"
         offset="0"
         id="stop804" />
      <stop
         style="stop-opacity:1;stop-color:#cd372d"
         offset="1"
         id="stop806" />
    </radialGradient>
    <clipPath
       clipPathUnits="userSpaceOnUse"
       id="clipPath774">
      <path
         inkscape:connector-curvature="0"
         d="m 100.472,540.813 c -1.85,0 -2.584,-1.299 -1.633,-2.881 l 0,0 28.136,-46.736 c 0.885,-1.477 0.911,-3.805 0.137,-5.407 l 0,0 6.84,11.384 -26.272,43.64 -7.208,0 z"
         id="path776" />
    </clipPath>
    <radialGradient
       fx="0"
       fy="0"
       cx="0"
       cy="0"
       r="1"
       gradientUnits="userSpaceOnUse"
       gradientTransform="matrix(38.321815,-70.669403,-70.669403,-38.321815,96.850586,542.22363)"
       spreadMethod="pad"
       id="radialGradient782">
      <stop
         style="stop-opacity:1;stop-color:#4387fd"
         offset="0"
         id="stop784" />
      <stop
         style="stop-opacity:1;stop-color:#4683ea"
         offset="1"
         id="stop786" />
    </radialGradient>
    <clipPath
       clipPathUnits="userSpaceOnUse"
       id="clipPath754">
      <path
         inkscape:connector-curvature="0"
         d="M 116.05,503.518 98.727,474.556 c -0.668,-1.431 0.027,-2.565 1.745,-2.565 l 0,0 7.205,0 15.422,25.618 -7.049,11.67 c 0.951,-1.582 0.951,-4.174 0,-5.761"
         id="path756" />
    </clipPath>
    <radialGradient
       fx="0"
       fy="0"
       cx="0"
       cy="0"
       r="1"
       gradientUnits="userSpaceOnUse"
       gradientTransform="matrix(38.322235,-70.670174,-70.670174,-38.322235,96.852539,542.22461)"
       spreadMethod="pad"
       id="radialGradient762">
      <stop
         style="stop-opacity:1;stop-color:#0da960"
         offset="0"
         id="stop764" />
      <stop
         style="stop-opacity:1;stop-color:#03914b"
         offset="1"
         id="stop766" />
    </radialGradient>
    <clipPath
       clipPathUnits="userSpaceOnUse"
       id="clipPath734">
      <path
         inkscape:connector-curvature="0"
         d="m 107.677,471.991 7.788,0 c 1.845,0 4.134,1.292 5.086,2.88 l 0,0 6.561,10.918 c 0.774,1.602 0.748,3.93 -0.137,5.407 l 0,0 -3.876,6.413 -15.422,-25.618 z"
         id="path736" />
    </clipPath>
    <radialGradient
       fx="0"
       fy="0"
       cx="0"
       cy="0"
       r="1"
       gradientUnits="userSpaceOnUse"
       gradientTransform="matrix(38.322907,-70.671417,-70.671417,-38.322907,96.851562,542.22559)"
       spreadMethod="pad"
       id="radialGradient742">
      <stop
         style="stop-opacity:1;stop-color:#ffcd4d"
         offset="0"
         id="stop744" />
      <stop
         style="stop-opacity:1;stop-color:#f6c338"
         offset="1"
         id="stop746" />
    </radialGradient>
  </defs>
  <sodipodi:namedview
     id="base"
     pagecolor="#ffffff"
     bordercolor="#666666"
     borderopacity="1.0"
     inkscape:pageopacity="0.0"
     inkscape:pageshadow="2"
     inkscape:zoom="0.35"
     inkscape:cx="227.85715"
     inkscape:cy="-28.414182"
     inkscape:document-units="px"
     inkscape:current-layer="layer1"
     showgrid="false"
     width="1052.36px"
     fit-margin-top="0"
     fit-margin-left="0"
     fit-margin-right="0"
     fit-margin-bottom="0"
     inkscape:window-width="1301"
     inkscape:window-height="744"
     inkscape:window-x="65"
     inkscape:window-y="24"
     inkscape:window-maximized="1" />
  <metadata
     id="metadata6378">
    <rdf:RDF>
      <cc:Work
         rdf:about="">
        <dc:format>image/svg+xml</dc:format>
        <dc:type
           rdf:resource="http://purl.org/dc/dcmitype/StillImage" />
        <dc:title></dc:title>
      </cc:Work>
    </rdf:RDF>
  </metadata>
  <g
     inkscape:label="Layer 1"
     inkscape:groupmode="layer"
     id="layer1"
     transform="translate(-147.14285,-417.91925)">
    <g
       transform="matrix(1.25,0,0,-1.25,24.114539,1093.9355)"
       id="g730">
      <g
         id="g732"
         clip-path="url(#clipPath734)">
        <g
           id="g738">
          <g
             id="g740">
            <path
               inkscape:connector-curvature="0"
               d="m 107.677,471.991 7.788,0 c 1.845,0 4.134,1.292 5.086,2.88 l 0,0 6.561,10.918 c 0.774,1.602 0.748,3.93 -0.137,5.407 l 0,0 -3.876,6.413 -15.422,-25.618 z"
               style="fill:url(#radialGradient742);stroke:none"
               id="path748" />
          </g>
        </g>
      </g>
    </g>
    <g
       transform="matrix(1.25,0,0,-1.25,24.114539,1093.9355)"
       id="g750">
      <g
         id="g752"
         clip-path="url(#clipPath754)">
        <g
           id="g758">
          <g
             id="g760">
            <path
               inkscape:connector-curvature="0"
               d="M 116.05,503.518 98.727,474.556 c -0.668,-1.431 0.027,-2.565 1.745,-2.565 l 0,0 7.205,0 15.422,25.618 -7.049,11.67 c 0.951,-1.582 0.951,-4.174 0,-5.761"
               style="fill:url(#radialGradient762);stroke:none"
               id="path768" />
          </g>
        </g>
      </g>
    </g>
    <g
       transform="matrix(1.25,0,0,-1.25,24.114539,1093.9355)"
       id="g770">
      <g
         id="g772"
         clip-path="url(#clipPath774)">
        <g
           id="g778">
          <g
             id="g780">
            <path
               inkscape:connector-curvature="0"
               d="m 100.472,540.813 c -1.85,0 -2.584,-1.299 -1.633,-2.881 l 0,0 28.136,-46.736 c 0.885,-1.477 0.911,-3.805 0.137,-5.407 l 0,0 6.84,11.384 -26.272,43.64 -7.208,0 z"
               style="fill:url(#radialGradient782);stroke:none"
               id="path788" />
          </g>
        </g>
      </g>
    </g>
    <g
       transform="matrix(1.25,0,0,-1.25,24.114539,1093.9355)"
       id="g790">
      <g
         id="g792"
         clip-path="url(#clipPath794)">
        <g
           id="g798">
          <g
             id="g800">
            <path
               inkscape:connector-curvature="0"
               d="m 107.68,540.813 26.272,-43.64 3.808,6.345 c 0.952,1.587 0.952,4.179 0,5.761 l 0,0 -17.209,28.653 c -0.952,1.582 -3.241,2.881 -5.086,2.881 l 0,0 -7.785,0 z"
               style="fill:url(#radialGradient802);stroke:none"
               id="path808" />
          </g>
        </g>
      </g>
    </g>
    <g
       transform="matrix(1.25,0,0,-1.25,24.114539,1093.9355)"
       id="g810">
      <g
         id="g812"
         clip-path="url(#clipPath814)">
        <g
           id="g818">
          <g
             id="g820" />
          <g
             id="g858">
            <g
               clip-path="url(#clipPath822)"
               id="g860">
              <g
                 id="g862">
                <g
                   clip-path="url(#clipPath826)"
                   id="g864">
                  <g
                     id="g866">
                    <g
                       id="g868" />
                    <g
                       mask="url(#mask840)"
                       id="g870">
                      <g
                         id="g872">
                        <path
                           inkscape:connector-curvature="0"
                           d="m 126.975,491.195 -10.925,18.084 c 0.951,-1.582 0.951,-4.174 0,-5.761 l -3.846,-6.405 14.908,-11.324 c 0.775,1.602 0.748,3.93 -0.137,5.406"
                           style="fill:url(#linearGradient852);stroke:none"
                           id="path874" />
                      </g>
                    </g>
                  </g>
                </g>
              </g>
            </g>
          </g>
        </g>
        <g
           id="g876">
          <g
             id="g878" />
          <g
             id="g916">
            <g
               clip-path="url(#clipPath880)"
               id="g918">
              <g
                 id="g920">
                <g
                   clip-path="url(#clipPath884)"
                   id="g922">
                  <g
                     id="g924">
                    <g
                       id="g926" />
                    <g
                       mask="url(#mask898)"
                       id="g928">
                      <g
                         id="g930">
                        <path
                           inkscape:connector-curvature="0"
                           d="m 137.761,509.279 -17.21,28.653 c -0.951,1.582 -3.241,2.88 -5.085,2.88 l -7.785,0 -7.208,0 c -1.851,0 -2.585,-1.298 -1.634,-2.88 l 17.211,-28.653 c 0.951,-1.582 0.951,-4.174 0,-5.761 L 98.728,474.557 c -0.669,-1.432 0.026,-2.567 1.745,-2.567 l 7.204,0 7.789,0 c 1.844,0 4.134,1.293 5.085,2.881 l 13.401,22.303 3.809,6.344 c 0.952,1.587 0.952,4.179 0,5.761"
                           style="fill:url(#radialGradient910);stroke:none"
                           id="path932" />
                      </g>
                    </g>
                  </g>
                </g>
              </g>
            </g>
          </g>
        </g>
      </g>
    </g>
    <g
       transform="matrix(1.25,0,0,-1.25,24.114539,1093.9355)"
       id="g1510">
      <g
         id="g1512"
         clip-path="url(#clipPath1514)">
        <g
           id="g1518"
           transform="translate(264.8945,571.0576)">
          <path
             inkscape:connector-curvature="0"
             d="m 0,0 c 0.17,0.072 0.597,-0.106 0.714,0 0.382,0.343 0.641,1.474 1.084,2.15 0.6,0.923 1.242,0.958 1.423,1.791 0.164,0.674 -0.64,2.503 -0.339,3.937 0.098,0.567 0.699,0.83 1.061,1.421 0.672,1.136 1.125,1.964 1.786,3.219 0.71,1.327 0.882,3.33 0.359,5.736 0.529,0.424 1.005,0.892 1.439,1.429 -0.75,3.097 -0.015,6.103 1.428,8.589 0.316,0.557 0.511,1.167 0.714,1.43 1.181,1.654 4.053,2.475 3.941,5.015 -1.058,1.82 -3.799,1.493 -5.737,0.699 -0.318,0.642 -0.859,1.062 -1.07,1.808 0.283,1.035 1.693,0.918 1.421,2.498 -0.509,1.023 -1.622,1.341 -2.495,2.142 -1.474,1.372 -2.034,2.6 -4.293,3.219 -0.673,0.191 -1.957,0.404 -2.498,0.357 -0.722,-0.035 -1.873,-1.169 -3.229,-1.425 -0.972,-0.185 -2.033,0.205 -2.505,0 -1.419,-0.627 -2.088,-2.575 -3.574,-3.21 -1.213,-0.535 -1.937,0.518 -2.867,-0.732 -0.902,1.483 -3.142,1.63 -5.729,1.444 -0.176,4.702 -4.25,5.523 -7.512,7.158 l -5.713,0 c -1.785,-1.927 -5.66,-1.746 -8.599,-2.518 -1.04,-0.619 -0.9,-2.425 -1.793,-3.219 -0.715,0.369 -0.554,1.59 -1.776,1.443 -3.733,-1.653 -4.975,-5.776 -5.387,-10.74 0.33,-1.474 2.659,-0.944 2.88,-2.508 -0.593,-1.917 -2.599,-2.416 -4.665,-2.861 -1.783,0.124 -1.287,2.539 -3.572,2.151 -2.345,-1.876 2.749,-4.446 -0.369,-6.08 -1.728,0.853 -2.596,2.487 -1.774,4.994 -1.247,1.575 -2.889,0.581 -5.374,0.732 -1.076,-2.063 0.809,-3.239 1.069,-5.015 1.706,-0.215 3.162,-0.659 3.584,-2.142 1.12,-0.183 1.262,0.639 2.495,0.337 1.393,-2.867 7.244,-4.375 10.742,-2.845 0.443,1.012 0.443,2.215 0,3.207 -2.096,1.565 -5.869,-0.732 -6.429,2.155 2.006,1.175 2.988,-1.423 5.717,-0.712 0.86,-1.034 2.065,-1.18 3.578,-0.711 1.047,1.482 1.406,3.097 2.859,4.283 0.454,0.369 1.469,0.317 2.146,0.711 0.592,0.342 0.742,1.097 1.438,1.086 0.531,1.017 0.652,2.446 1.421,3.218 2.82,0.292 4.008,2.194 6.451,2.857 0.399,-1.03 0.642,-2.216 0.711,-3.58 -1.75,-1.693 -5.607,-1.294 -7.871,-2.495 0.91,-2.968 -0.945,-6.609 1.078,-8.588 2.96,-0.68 5.05,-0.029 6.442,-2.152 0.741,-1.137 1.205,-4.567 1.084,-7.165 -0.062,-1.025 -0.7,-2.103 -0.733,-3.219 -0.031,-1.034 0.462,-2.205 0.36,-2.855 -0.167,-1.069 -1.391,-1.887 -1.071,-2.863 -0.141,-1.462 1.525,-1.103 1.793,-2.147 -0.982,-1.372 -2.614,-2.844 -2.867,-5.374 -0.189,-1.908 0.792,-6.149 1.434,-8.222 0.52,-1.756 0.665,-2.832 1.788,-3.583 0.359,-0.227 0.989,-0.069 1.43,-0.358 0.934,-0.595 1.365,-1.932 2.51,-1.438 1.709,1.111 2.064,3.209 3.217,5.015 0.161,0.262 0.143,0.794 0.364,1.063 0.097,0.161 0.631,0.234 0.7,0.375 0.566,1.02 0.34,2.322 1.439,3.209 0.949,0.781 3.576,0.66 5.371,1.806 1.385,0.868 2.116,2.785 3.932,3.566 1.334,0.586 3.531,0.38 5.016,1.073 0.159,0.093 0.231,0.663 0.36,0.713 0.184,0.082 0.541,-0.111 0.711,0 C -0.219,-0.62 -0.106,-0.059 0,0"
             style="fill:#e0e0e0;fill-opacity:1;fill-rule:nonzero;stroke:none"
             id="path1520" />
        </g>
        <g
           id="g1522"
           transform="translate(357.2178,608.2812)">
          <path
             inkscape:connector-curvature="0"
             d="m 0,0 c 0.221,-0.132 0.473,-0.604 0.724,-0.726 2.155,-0.955 3.647,-0.057 5.364,0.362 0.662,-0.903 0.662,-2.446 2.147,-2.508 1.216,0.454 2.057,1.297 2.511,2.508 C 10.029,0.439 9.364,1.694 7.873,1.786 6.78,1.855 6.45,1.422 5.378,1.069 4.21,2.644 2.886,4.07 0.361,4.293 -0.301,5.645 -1.04,6.927 -3.21,6.791 -4.563,5.024 -3.983,2.85 -2.857,1.432 -2.601,1.108 -0.44,0.278 0,0"
             style="fill:#e0e0e0;fill-opacity:1;fill-rule:nonzero;stroke:none"
             id="path1524" />
        </g>
        <g
           id="g1526"
           transform="translate(207.9961,605.0518)">
          <path
             inkscape:connector-curvature="0"
             d="m 0,0 2.511,0 c 0.187,-1.115 0.635,-1.999 1.073,-2.861 0.992,-0.26 1.092,0.813 1.434,1.443 C 6.483,1.28 4.615,2.114 2.862,3.229 2.961,4.733 1.826,5.045 1.427,6.079 -2.266,6.422 -1.682,1.291 0,0"
             style="fill:#e0e0e0;fill-opacity:1;fill-rule:nonzero;stroke:none"
             id="path1528" />
        </g>
        <g
           id="g1530"
           transform="translate(406.9648,609.3506)">
          <path
             inkscape:connector-curvature="0"
             d="M 0,0 C -0.989,2.396 -6.128,1.381 -7.861,0.362 -8.388,-5.717 -0.399,-4.253 0,0"
             style="fill:#e0e0e0;fill-opacity:1;fill-rule:nonzero;stroke:none"
             id="path1532" />
        </g>
        <g
           id="g1534"
           transform="translate(411.9697,610.0674)">
          <path
             inkscape:connector-curvature="0"
             d="M 0,0 C -0.119,0.722 -1.295,0.857 -2.495,0.356 -2.567,-2.059 0.193,-1.034 0,0"
             style="fill:#e0e0e0;fill-opacity:1;fill-rule:nonzero;stroke:none"
             id="path1536" />
        </g>
        <g
           id="g1538"
           transform="translate(199.0508,606.1367)">
          <path
             inkscape:connector-curvature="0"
             d="m 0,0 c 0.942,0.369 1.604,1.02 1.786,2.145 0.856,0.336 1.766,0.629 1.438,2.142 l -1.788,0 C 1.485,2.442 -0.917,3.053 -1.783,2.145 -1.854,0.756 -1.21,0.086 0,0"
             style="fill:#e0e0e0;fill-opacity:1;fill-rule:nonzero;stroke:none"
             id="path1540" />
        </g>
        <g
           id="g1542"
           transform="translate(328.2451,604.3359)">
          <path
             inkscape:connector-curvature="0"
             d="M 0,0 C 0.858,-0.098 0.67,0.201 1.431,0.716 2.726,1.614 2.663,1.659 3.217,2.869 3.517,3.502 4.191,3.723 3.928,4.293 2.894,5.186 2.143,2.751 0.709,2.869 -0.022,3.328 0.069,4.6 -1.438,4.293 -2.979,2.18 -1.582,0.201 0,0"
             style="fill:#e0e0e0;fill-opacity:1;fill-rule:nonzero;stroke:none"
             id="path1544" />
        </g>
        <g
           id="g1546"
           transform="translate(189.4053,602.1904)">
          <path
             inkscape:connector-curvature="0"
             d="m 0,0 c -0.272,-2.648 1.112,-3.65 2.133,-5.005 3.302,0.814 7.892,-0.781 8.598,2.145 C 11,-1.645 10.188,-1.996 9.646,-1.063 9.285,-0.463 9.737,0.774 8.584,0.712 7.089,0.999 7.902,-1.002 6.427,-0.71 5.355,0.121 4.914,1.585 4.279,2.861 4.581,3.871 5.441,4.335 5.355,5.727 3.82,6.813 2.716,6.389 1.422,5.727 0.009,5.005 -2.531,4.204 -2.531,2.861 -1.999,1.585 -0.421,1.364 0,0"
             style="fill:#e0e0e0;fill-opacity:1;fill-rule:nonzero;stroke:none"
             id="path1548" />
        </g>
        <g
           id="g1550"
           transform="translate(323.5928,603.2715)">
          <path
             inkscape:connector-curvature="0"
             d="M 0,0 0,2.138 C -1.027,2.972 -2.704,2.195 -3.587,1.78 -3.262,0.226 -1.719,-0.897 0,0"
             style="fill:#e0e0e0;fill-opacity:1;fill-rule:nonzero;stroke:none"
             id="path1552" />
        </g>
        <g
           id="g1554"
           transform="translate(348.6406,500.5742)">
          <path
             inkscape:connector-curvature="0"
             d="m 0,0 c -1.803,0.005 -3.819,3.81 -5.012,4.995 -0.411,0.529 -0.411,0.908 0,1.434 l 1.065,0 C -2.748,3.932 0.122,3.103 2.862,2.146 1.9,0.849 1.166,-0.024 0,0 m -9.677,28.248 c 1.322,1.2 2.195,2.83 5.025,2.523 0.987,-1.682 -1.223,-1.741 -1.084,-3.594 -0.037,-1.386 1.535,-2.078 2.148,-3.219 0.413,-0.741 0.413,-1.775 0.721,-2.495 0.653,-1.579 2.308,-3.024 1.425,-4.648 -1.695,-1.068 -3.62,0.303 -4.646,1.064 1.076,5.726 -3.157,6.151 -3.589,10.369 m -2.137,-40.428 c -0.859,0.011 -1.503,0.214 -2.146,0.713 -1.202,0.932 -1.202,2.209 -2.144,3.581 -0.393,0.55 -1.213,0.994 -1.425,1.434 -0.372,0.741 -0.345,1.989 -0.732,2.866 -0.433,0.978 -1.255,1.577 -1.788,2.502 -0.151,0.267 0.142,0.792 0,1.084 -0.24,0.483 -1.845,1.464 -1.421,3.21 l 1.074,0 c 0.732,-0.853 1.022,-1.817 1.784,-2.872 0.596,-0.831 1.706,-1.524 2.144,-2.498 0.243,-0.542 0.05,-1.255 0.364,-1.785 1.554,-2.602 4.936,-4.797 4.29,-8.235 M -28.635,8.582 c -1.602,0.072 -2.846,0.656 -4.291,1.064 -1.502,0.439 -3.3,1.208 -3.939,1.081 -1.588,-0.308 -1.596,-1.79 -2.858,-2.868 -1.374,0.162 -2.612,0.517 -3.584,1.434 -1.14,1.106 -3.832,1.151 -5.726,2.498 0.211,1.996 -0.164,3.42 -1.061,4.303 -3.002,-0.166 -5.368,0.061 -7.882,-0.358 -2.651,-0.454 -5.159,-2.569 -7.877,-1.428 1.233,1.523 3.082,1.034 4.29,2.507 0.557,0.645 0.326,2.029 0.724,2.849 0.485,0.961 1.524,1.385 2.147,2.15 0.762,0.938 0.862,1.993 1.795,2.503 1.346,0.688 3.995,0.06 4.655,1.439 2.658,-1.399 4.075,-4.038 7.15,-5.02 0.645,-0.662 0.962,-1.651 1.785,-2.14 3.953,3.175 -2.777,4.713 -3.578,7.507 0.059,0.424 0.652,0.313 1.073,0.375 1.102,-1.766 3.601,-2.141 5.013,-3.584 -0.008,-0.84 0.611,-1.064 0.352,-2.158 1.255,-0.56 2.098,-4.93 3.94,-5 3.024,-0.111 1.417,2.645 1.786,4.66 0.943,0.033 1.255,0.536 1.795,0 0.333,-0.361 0.13,-1.401 0.354,-1.8 0.272,-0.449 0.448,-0.898 0.731,-1.439 0.541,-1.074 0.999,-1.185 1.785,-2.142 3.689,0.57 5.588,-1.228 8.586,-0.36 0.603,-2.078 -0.384,-4.256 -1.436,-5.718 -2.115,0.438 -3.66,-0.467 -5.729,-0.355 m -15.743,36.501 c -0.119,2.405 0.744,3.421 1.434,5.712 0.049,1.597 -1.458,2.168 -1.434,3.586 0.03,2.044 1.667,2.897 3.219,3.94 0.298,1.484 0.27,3.304 1.436,3.939 0.583,0.092 0.62,-0.342 1.069,-0.363 0.404,-2.673 -1.835,-2.692 -2.505,-4.293 -0.089,-3.447 0.821,-5.867 3.226,-6.809 -0.187,-3.234 -3.096,-4.522 -1.79,-8.225 -1.056,-0.765 -2.011,0.132 -3.221,0 -1.766,-0.198 -3.638,-2.12 -5.015,-0.359 0.412,1.746 2.73,1.575 3.581,2.872 m 17.18,-16.098 c 1.835,0.283 1.455,-1.657 2.846,-1.808 1.65,-0.07 1.65,1.473 2.159,2.517 l 1.083,0 c -0.201,-3.903 4.032,-3.368 5.006,-6.089 -1.241,-3.004 -3.945,-0.741 -6.089,-0.357 -2.436,0.439 -4.282,-0.813 -7.151,-1.076 -2.076,1.944 -0.153,6.029 2.146,6.813 m -0.361,35.061 c 1.184,-0.372 2.93,-0.181 3.939,-0.719 0.024,-1.93 -2.247,-1.575 -3.939,-1.788 -0.512,0.476 -0.512,2.013 0,2.507 m 143.862,37.213 c -1.86,1.069 -3.428,-0.318 -4.662,-0.353 -1.091,-0.031 -2.357,0.53 -3.569,0.71 -0.823,0.121 -1.605,-0.09 -2.51,0 -1.8,0.203 -3.648,0.903 -5.367,1.081 -2.81,0.261 -4.037,-0.92 -6.076,-1.081 -0.431,-0.533 -0.459,-1.468 -1.084,-1.796 -1.394,0.273 -2.215,-1.004 -3.217,-1.423 -0.724,-0.312 -1.646,-0.412 -2.5,-0.724 -0.8,-0.263 -1.435,-0.98 -2.516,-0.696 -1.493,0.731 -2.394,2.673 -4.288,2.843 -1.788,0.162 -3.317,-1.716 -5.008,-1.785 -0.58,-0.02 -0.915,0.2 -1.446,0.362 -0.491,0.165 -1.462,0.208 -1.773,0.359 -1.084,0.474 -1.364,1.596 -2.87,1.797 -1.086,0.121 -2.065,-0.571 -3.216,-0.733 -1.68,-0.22 -3.136,0.45 -4.65,-0.347 -0.92,-1.105 0.101,-2.554 0,-3.936 -1.305,-0.609 -2.677,-1.155 -4.298,-1.442 -1.119,-0.414 -1.014,-2.074 -2.501,-2.133 -2.926,1.951 -3.166,6.608 -9.316,5.351 -0.656,-1.004 -0.656,-2.663 -2.138,-2.849 -1.612,-0.087 -2.295,0.995 -3.946,1.073 -1.91,0.092 -4.289,-1.845 -6.081,0 0.481,5.469 -3.47,9.137 -8.225,7.16 -1.752,0.514 -2.568,1.957 -4.654,2.138 -0.04,-0.555 -0.913,-0.277 -0.712,-1.073 -1.273,-1.171 0.327,-2.926 0,-3.942 C 19.137,98.201 17.784,98.015 15.749,97.673 13.998,94.846 9.584,93.752 11.086,88.737 10.365,88.04 8.729,88.227 8.577,86.947 7.755,86.572 7.848,85.297 7.879,84.095 6.261,83.42 5.407,81.997 3.572,81.577 2.178,82.563 1.64,84.41 -0.711,84.444 -1.052,82.98 -1.882,79.42 -1.793,78.006 c 0.092,-1.474 1.731,-2.76 0.72,-3.942 -2.183,0.42 -3.406,0.786 -5.722,0.361 -0.213,-0.63 0.426,-2.098 -0.361,-2.155 -1.655,-1.421 -3.927,-0.494 -5.721,-1.084 -0.141,-0.025 -0.549,-0.61 -0.73,-0.703 -0.462,-0.242 -1.025,-0.058 -1.417,-0.356 -1.13,-0.833 -1.283,-2.679 -2.877,-2.862 -0.695,0.853 -0.471,2.629 -2.148,2.498 -1.466,-0.702 0.953,-4.011 -1.421,-4.284 -1.557,0.112 -1.356,1.969 -2.15,2.872 -2.788,1.483 -5.635,2.946 -9.306,3.566 -0.989,1.124 -1.722,2.22 -2.856,2.508 -3.358,0.831 -5.838,-1.395 -7.162,-2.155 -1.015,-0.577 -1.553,-0.635 -2.148,-1.084 -0.731,-0.531 -1.345,-0.999 -1.793,-1.423 -1.216,-1.124 -0.923,-2.498 -1.424,-3.924 -0.211,-0.601 -1.071,-1.282 -1.436,-2.146 -0.403,-0.983 -0.3,-2.123 -0.714,-2.869 -0.067,-0.116 -0.61,-0.237 -0.723,-0.354 -0.248,-0.288 -0.105,-0.778 -0.348,-1.074 -1.843,-2.302 -3.909,-2.629 -5.367,-4.658 0.114,-2.864 0.302,-5.655 1.778,-7.158 2.316,-0.524 2.426,1.172 4.293,1.069 0.501,-0.692 0.347,-2.038 0.732,-2.854 -0.531,0.518 -2.349,0.518 -2.882,0 -0.811,-1.521 0.21,-2.74 0,-4.657 -0.901,-0.64 -1.981,-1.117 -3.21,-1.424 -0.949,-0.963 -1.433,-2.397 -2.867,-2.86 -0.148,1.776 -3.37,5.157 -4.652,7.865 -0.361,0.794 0.062,1.828 -0.353,2.503 -0.694,1.155 -2.345,1.241 -3.228,0.725 -1.002,-0.679 -0.662,-2.668 -0.712,-4.302 -2.458,-0.751 -4.643,-3.289 -3.584,-6.428 2.078,-0.422 2.611,0.721 3.946,1.065 0.511,1.15 0.152,3.178 1.783,3.218 0.695,-1.479 -1.255,-4.323 0,-6.441 1.206,-0.228 3.331,0.454 3.944,-0.361 -0.685,-1.224 -2.413,-1.425 -3.582,-2.147 0.07,-2.37 3.46,-2.937 2.859,-5.374 -0.814,-3.409 -5.044,-0.548 -7.866,-2.138 -0.893,-0.722 -0.198,-2.009 -0.36,-3.225 -0.258,-1.956 -1.172,-3.585 -0.362,-4.999 1.226,-1.381 2.974,-0.761 3.222,-2.507 0.282,-1.922 -1.947,-2.375 -3.584,-4.303 -0.751,-0.893 -0.838,-3.598 -1.059,-3.931 -0.724,-1.079 -2.537,-1.614 -3.578,-2.507 -1.236,-1.045 -2.039,-2.473 -2.86,-3.946 -0.545,-0.942 -1.319,-2.254 -1.446,-3.207 -0.201,-1.515 0.511,-3.9 0.36,-5.73 -0.06,-0.638 -0.63,-1.258 -0.699,-1.788 -0.653,-3.865 1.639,-4.515 3.206,-6.452 0.583,-0.721 0.654,-1.131 1.077,-1.781 0.832,-1.267 1.386,-1.701 2.504,-2.503 1.064,-0.76 1.496,-1.241 2.495,-1.805 2.429,-1.311 2.909,-0.007 5.729,0 1.001,0.015 2.078,-0.46 2.87,-0.339 0.773,0.102 1.597,0.783 2.504,1.076 3.562,1.148 4.177,0.489 6.444,-1.798 1.612,0.061 3.189,0.082 3.576,-1.073 0.904,-1.717 -0.816,-3.602 -0.367,-5.727 0.399,-1.786 2.376,-2.748 3.228,-4.293 0.459,-0.834 1.147,-2.306 1.445,-3.571 0.217,-1.069 0.53,-3.209 0.341,-4.298 -0.131,-0.829 -1.126,-1.196 -1.425,-1.781 -0.199,-0.394 -0.279,-1.18 -0.361,-1.444 -0.91,-2.946 0.11,-5.009 1.073,-7.16 0.461,-1.044 1.172,-2.088 1.433,-3.218 0.33,-1.447 0.152,-2.719 0.352,-3.929 0.351,-1.999 2.215,-3.467 2.87,-5.38 0.632,-1.85 -0.03,-3.981 1.795,-5.357 2.577,0.373 5.427,0.293 7.503,0.712 0.431,0.095 2.455,1.035 2.516,1.079 1.025,0.98 1.967,1.716 3.222,3.219 1.645,1.952 3.168,3.79 3.568,6.434 1.288,1.175 2.37,0.968 2.87,2.512 0.447,1.402 -0.491,3.363 0,4.65 0.84,2.205 5.013,2.917 6.074,4.648 1.049,1.669 0.876,5.85 0.362,7.153 -0.421,1.058 -0.962,2.179 -1.064,3.233 -0.198,1.785 0.372,2.926 0.702,3.581 0.803,1.565 0.997,1.985 2.148,3.21 0.843,0.892 1.845,2.069 2.497,2.507 2.076,1.379 4.531,3.492 5.387,5.354 0.053,0.147 0.63,0.221 0.702,0.363 1.113,1.971 2.225,4.414 2.515,6.81 -2.215,2.346 -7.692,-2.456 -8.953,1.074 0.642,1.121 2.418,1.203 3.938,1.783 1.609,0.625 3.752,1.426 5.015,2.148 0.354,0.213 0.444,0.55 0.701,0.711 1.397,0.878 2.753,1.025 3.944,1.796 0.188,0.121 0.5,0.556 0.714,0.722 1.091,0.883 1.724,1.555 2.507,2.859 0.66,1.092 1.223,1.979 1.086,2.862 -0.354,2.19 -2.891,1.221 -3.233,3.931 3.65,-0.602 6.4,-0.677 10.381,-0.354 1.865,-1.595 3.879,-3.048 5.002,-5.368 1.329,-0.116 2.461,-0.409 3.232,-1.071 0.131,-3.186 1.675,-5.377 2.508,-7.162 0.23,-0.522 0.148,-0.897 0.347,-1.434 0.183,-0.454 0.545,-0.702 0.714,-1.069 0.811,-1.664 1.403,-3.264 2.513,-4.646 1.331,-0.261 1.539,0.611 2.866,0.353 -0.04,-1.711 0.439,-2.901 1.793,-3.224 0.523,0.332 1.746,1.795 0.701,2.502 0.199,1.63 -1.903,0.958 -1.785,2.503 -0.359,1.265 0.353,3.561 0.353,3.941 0,0.119 -0.422,0.787 -0.353,1.435 0.161,1.298 3.202,3.922 4.293,5.005 2.6,2.6 3.864,4.365 7.524,4.288 1.965,-1.951 3.721,-4.136 4.644,-7.137 1.084,-0.511 1.289,0.161 2.866,0 1.173,-1.815 1.965,-3.986 2.507,-6.448 1.382,0.152 0.985,2.125 2.857,1.795 3.406,-1.184 2.421,-3.97 5.38,-3.943 1.034,0.016 2.126,1.436 2.495,1.791 0.954,0.888 1.667,1.493 1.798,2.516 0.129,1.084 -0.82,3.66 -1.081,3.919 -0.154,0.165 -0.204,0.576 -0.365,0.722 -0.642,0.633 -1.614,0.814 -2.135,1.434 -1.847,2.16 -0.724,5.015 2.135,4.652 1.05,-0.783 -1.162,-3.244 1.086,-3.224 1.573,0.094 0.685,2.644 1.419,3.572 2.882,1.229 5.467,1.882 7.165,3.576 1.632,1.644 1.612,2.266 2.506,4.657 0.835,2.215 1.202,2.885 0.703,5.01 -0.141,0.649 -0.189,1.78 -0.352,2.158 -0.302,0.793 -1.371,1.555 -1.796,2.145 -0.327,0.468 -0.501,1.126 -0.704,1.428 -0.557,0.801 -0.689,0.419 -0.721,1.421 -0.03,1.439 2.485,2.61 1.425,3.579 -1.475,1.035 -3.542,-0.707 -4.28,1.078 0,1.791 1.134,2.444 2.145,3.225 1.154,-1.302 1.999,-1.513 4.283,-1.081 0.801,-1.704 2.297,-2.939 3.239,-4.646 0.488,-0.916 0.268,-2.274 1.434,-2.864 1.053,0.129 1.807,0.569 2.49,1.074 0.458,3.904 -2.218,4.692 -3.224,7.158 1.128,1.393 1.215,3.789 2.148,5.369 0.865,0.581 2.308,0.57 3.228,1.079 0.985,1.297 1.868,3.31 2.51,5.357 0.551,1.828 1.446,4.885 1.419,6.449 -0.005,1.16 -1.34,2.199 -0.345,3.223 0.422,-1.85 0.962,-3.577 2.505,-4.294 2.738,3.771 -2.435,6.479 -2.879,10.367 -3.668,1.02 -8.162,-0.059 -8.943,2.873 -0.063,0.297 0.57,3.058 0.719,3.582 0.042,0.126 0.673,0.52 0.714,0.711 0.317,1.191 0.168,3.506 0.724,4.297 1.071,1.555 2.946,1.191 4.64,1.786 1.298,0.444 1.887,1.526 2.865,1.429 1.56,-0.072 2.415,-1.258 3.948,-0.365 1.332,1.506 -0.801,6.487 1.793,7.521 1.788,0.361 1.74,-1.113 3.209,-1.073 0.933,0.171 1.205,1.967 2.149,1.073 -0.796,-2.244 -0.251,-4.766 -0.715,-7.156 -0.208,-1.116 -0.94,-2.14 -1.072,-3.215 -0.57,-4.672 1.336,-6.517 2.86,-8.955 1.082,-1.733 1.964,-3.961 3.579,-4.65 1.788,1.391 1.021,4.723 1.434,6.795 0.111,0.555 0.711,0.913 0.711,1.438 0.02,0.544 -0.59,1.523 -0.711,2.503 -0.137,1.073 0.17,2.352 0,2.869 -0.4,1.156 -2.019,1.948 -2.508,3.215 -0.62,1.579 0.172,2.693 -0.711,3.941 1.606,1.503 3.3,2.894 6.091,3.215 0.538,2.317 1.147,4.562 2.134,6.439 0.648,0.903 2.436,0.653 2.515,2.16 -0.438,2.704 -3.315,3.036 -3.941,5.353 -0.119,0.454 0.36,1.512 0.355,2.15 0,0.982 -0.474,1.382 -0.355,2.507 1.233,1.588 3.331,0.186 5.368,1.059 0.855,1.508 -0.573,2.108 -0.725,3.581 0.181,1.869 -0.34,3.008 -1.064,3.946"
             style="fill:#e0e0e0;fill-opacity:1;fill-rule:nonzero;stroke:none"
             id="path1556" />
        </g>
        <g
           id="g1558"
           transform="translate(409.834,602.5547)">
          <path
             inkscape:connector-curvature="0"
             d="M 0,0 C 0.211,1.28 -1.066,1.094 -2.145,1.079 -2.637,-0.536 -0.704,-0.667 0,0"
             style="fill:#e0e0e0;fill-opacity:1;fill-rule:nonzero;stroke:none"
             id="path1560" />
        </g>
        <g
           id="g1562"
           transform="translate(299.6074,589.6641)">
          <path
             inkscape:connector-curvature="0"
             d="M 0,0 C 2.349,0.156 1.342,3.662 3.222,4.306 3.69,3.341 3.993,2.21 5.727,2.507 7.073,4.915 3.502,5.208 3.582,7.521 5.525,8.082 7.574,8.526 7.522,11.096 6.55,12.4 4.103,12.215 1.796,12.169 0.826,11.472 0.161,10.458 -1.061,10.02 -1.928,9.551 -3.541,9.878 -4.29,9.308 -5.445,6.508 -3.018,4.784 -1.793,3.229 -1.743,1.59 -0.92,0.741 0,0"
             style="fill:#e0e0e0;fill-opacity:1;fill-rule:nonzero;stroke:none"
             id="path1564" />
        </g>
        <g
           id="g1566"
           transform="translate(245.2178,465.502)">
          <path
             inkscape:connector-curvature="0"
             d="m 0,0 c -0.989,0.731 -2.226,1.893 -2.86,2.145 -1.622,0.62 -3.72,0.206 -5.376,0.705 -0.743,0.238 -1.365,1.095 -2.134,1.427 -0.954,0.425 -1.864,0.142 -2.51,0.363 -2.266,0.808 -2.066,2.205 -2.864,3.94 -0.385,0.834 -0.925,1.99 -1.439,2.508 -0.126,0.141 -1.532,1.141 -2.145,1.424 -1.237,0.565 -2.093,0.2 -3.578,0.362 -1.538,0.155 -3.284,2.56 -4.283,3.219 -0.883,0.585 -1.637,1.942 -2.145,2.15 -1.739,0.665 -4.284,-0.243 -5.73,0 -1.604,0.263 -2.115,1.25 -3.226,1.431 -2.81,0.472 -4.725,-0.109 -5.73,-0.709 -1.021,-0.638 -1.477,-1.932 -3.209,-2.513 -0.602,-0.198 -1.383,0.226 -1.797,-0.359 l -0.278,-0.273 c -0.172,0.042 -0.35,0.058 -0.531,0.01 l -0.263,0.263 c -2.564,0.375 -3.861,1.086 -4.293,3.219 -0.273,1.366 1.165,2.912 0.363,4.293 -0.733,1.545 -4.043,0.511 -5.018,1.795 -0.849,1.902 1.624,3.307 1.086,6.086 -3.71,1.489 -3.71,-1.852 -5.377,-2.866 -3.98,-2.426 -7.03,1.442 -6.44,6.073 0.101,0.873 1.256,5.151 1.425,5.374 0.601,0.796 3.708,2.109 4.306,2.154 0.96,0.037 2.086,-0.862 3.207,-0.72 0.955,0.348 1.645,1.24 2.879,1.431 1.924,0.293 4.171,-0.65 5.356,-1.431 0.39,-2.11 0.39,-4.628 2.871,-4.647 1.984,2.361 -0.908,4.625 0,7.511 0.186,0.615 0.858,0.953 1.423,1.434 1.18,0.997 2.096,1.689 3.229,2.502 0.7,0.51 1.535,0.732 1.773,1.079 0.814,1.137 0.524,2.77 1.081,3.936 0.342,0.712 1.216,1.381 1.789,2.153 1.483,1.927 2.155,2.74 4.643,3.209 0.661,2.049 1.577,4.122 3.941,4.294 1.195,0.091 1.805,-0.602 3.231,-0.723 1.634,1.116 4.28,1.213 4.992,3.22 -1.825,0.337 -2.663,0.364 -3.558,1.795 -0.29,0.454 0.188,1.667 0,2.507 -0.251,1.057 -1.948,1.151 -0.724,1.787 1.827,-0.403 2.779,-0.783 4.282,-0.348 1.256,0.337 3.031,1.361 3.954,0.717 -0.271,-1.533 -1.675,-1.923 -1.436,-3.947 1.676,-0.816 3.45,-1.557 6.081,-1.437 1.213,2.658 -1.421,3.891 -2.151,5.746 1.025,2.276 0.817,4.174 0,5.354 -0.247,0.363 -0.51,1.195 -0.709,1.439 -0.853,0.972 -2.217,1.21 -2.856,2.489 -0.663,1.332 -0.462,2.823 -0.726,3.947 -0.262,1.174 -0.441,2.194 -1.076,3.581 -2.534,0.399 -1.885,-2.416 -4.639,-1.796 -1.014,1.092 -0.534,2.287 -0.373,3.941 -1.699,2.22 -3.888,5.526 -7.864,4.298 -0.97,-1.288 -0.28,-2.785 -0.712,-4.298 -0.319,-1.132 -1.324,-1.981 -1.431,-3.229 -0.124,-1.23 0.752,-2.75 0.347,-3.931 -0.501,-1.523 -3.006,-1.831 -3.93,-3.571 -1.075,-2.017 0.707,-3.178 -1.434,-4.651 -1.977,0.387 -0.478,4.283 -1.434,5.709 -0.349,0.668 -1.182,0.409 -1.785,0.723 -1.748,0.92 -3.167,2.971 -4.652,3.944 -0.244,0.162 -0.475,0.214 -0.715,0.366 -1.393,0.811 -1.664,1.371 -2.145,2.849 -1.25,3.819 1.66,5.586 3.931,7.517 1.773,1.499 3.599,3.254 6.078,3.21 0.963,-0.34 0.893,-1.732 1.795,-2.146 1.724,0.526 2.838,0.683 4.291,0.732 0.316,2.322 -2.134,3.439 -1.424,4.995 2.189,1.053 3.632,1.785 4.287,3.945 0.507,1.624 1.2,3.244 2.155,4.294 2.447,0.429 3.088,-0.961 3.581,-2.503 -0.021,-1.546 -1.897,-1.21 -1.446,-3.239 1.585,-0.458 2.59,1.693 3.229,0 -0.24,-2.497 -2.237,-3.249 -3.568,-4.643 -1.417,-0.03 -3.151,0.278 -2.867,-1.435 -0.152,-1.922 2.998,-0.571 3.941,-1.414 0.766,-0.811 0.828,-2.668 1.772,-3.586 0.675,-0.643 2.448,-1.468 3.23,-1.423 0.662,0.018 2.56,1.14 2.858,1.423 1.613,1.453 0.192,3.688 -0.363,5.731 1.349,0.035 1.096,-1.545 2.874,-1.081 1.563,0.975 2.465,1.503 2.505,2.867 0.018,0.922 -1.121,1.694 -1.788,2.502 -0.819,0.973 -1.689,1.587 -1.791,2.507 0.14,1.412 0.792,2.123 0.709,3.22 -0.191,2.728 -3.489,4.119 -4.652,6.809 -0.491,1.157 -0.772,2.255 -0.703,3.919 -1.083,1.585 -3.468,1.005 -5.386,1.434 -0.722,0.172 -1.275,0.571 -1.785,0.722 -4.472,1.433 -7.161,-3.596 -6.792,-8.235 0.654,-1.038 1.899,-1.521 1.785,-3.219 -0.068,-1.043 -1.04,-2.576 -2.495,-2.506 -0.492,1.463 -2.22,2.789 -2.518,4.642 -0.072,0.533 0.322,1.547 0.361,2.157 0.1,1.536 -0.229,3.2 0.361,4.654 1.937,1.286 5.712,0.745 5.014,4.657 -1.431,1.25 -3.489,1.133 -5.014,0 -1.65,2.611 -3.492,1.319 -5.015,0 -1.743,-1.53 -2.026,-1.818 -1.422,-3.583 0.108,-0.329 0.108,-1.02 0.36,-1.439 0.462,-0.827 1.705,-1.007 1.784,-2.143 0.049,-0.707 -0.211,-1.015 -0.36,-1.434 -0.689,-2.024 -1.694,-2.024 -3.581,-2.869 -0.682,-1.233 -0.201,-2.609 -1.786,-3.209 -1.746,-0.65 -4.372,0.526 -4.293,2.512 2.661,-0.055 4.715,1.381 5.008,3.214 0.111,0.655 -0.496,0.858 -0.715,1.422 -0.672,1.802 -0.119,4.267 0.35,5.379 0.583,1.311 2.279,2.003 2.15,3.935 -2.26,1.401 -3.552,-1.614 -5.719,-1.424 -2.45,0.197 -3.258,2.342 -3.569,5.728 -2.302,1.82 -4.813,2.774 -6.46,1.058 -1.764,-1.835 -5.783,-4.853 -4.283,-7.511 1.103,-1.065 3.521,0.364 4.283,-0.358 -0.573,-1.358 0.253,-2.833 0,-3.935 -0.082,-0.4 -0.853,-0.986 -1.061,-1.434 -0.345,-0.702 0.079,-2.029 -1.082,-1.796 -1.679,0.112 -2.109,1.479 -2.865,2.507 -2.505,0.358 -4.107,1.615 -5.364,3.23 -3.502,0.029 -6.598,-0.329 -9.655,-0.722 -0.754,0.692 -1.365,1.503 -1.798,2.508 -1.284,0.131 -1.594,1.511 -2.507,2.149 -0.734,0.509 -2.165,0.751 -3.22,1.422 -0.148,0.111 -0.191,0.59 -0.361,0.731 -0.288,0.224 -0.794,0.152 -1.074,0.355 -0.171,0.108 -0.171,0.58 -0.348,0.71 -0.332,0.248 -0.791,0.1 -1.073,0.358 -0.732,0.665 -0.905,1.59 -1.427,2.149 -0.823,0.853 -1.304,1.12 -2.505,1.423 -2.088,0.541 -3.844,-0.318 -5.016,-0.711 -0.682,-0.231 -1.608,-0.11 -2.148,-0.354 -1.374,-0.608 -2.396,-1.936 -3.938,-2.507 -1.255,-0.458 -2.701,0.253 -3.575,-1.068 -0.369,-2.639 1.104,-5.327 0,-7.513 -1.182,-0.141 -1.751,1.392 -3.228,1.422 -0.311,0.009 -1.253,-0.488 -1.793,-0.709 -2.201,-0.926 -2.078,-2.316 -1.778,-4.658 0.641,-1.394 3.611,-0.443 3.929,-2.146 -0.627,-2.45 -3.394,-1.079 -4.999,-1.795 -0.264,-0.111 -0.865,-0.922 -1.438,-1.42 -0.64,-0.566 -1.553,-1.047 -1.793,-1.434 -0.62,-1.055 -1.181,-3.411 -1.065,-4.294 0.202,-1.624 2.501,-2.048 2.139,-4.657 0.913,-0.651 2.455,-0.651 2.502,-2.138 -1.129,-3.276 -5.322,-3.507 -7.147,-6.086 3.973,-0.04 5.617,2.235 8.586,3.209 1.425,0.365 1.071,-1.054 2.509,-0.702 2.116,1.097 1.094,4.784 3.207,5.365 1.975,-1.521 5.574,-0.34 7.159,0.726 0.723,-0.453 1.437,-1.155 2.513,-1.808 0.828,-0.483 2.141,-0.761 2.864,-1.435 0.403,-0.37 1.126,-2.176 1.434,-2.503 1.394,-1.439 0.955,-3.064 1.414,-5.36 0.104,-0.444 0.193,-0.8 0.364,-1.43 0.162,-0.571 0.258,-1.506 0.358,-1.788 0.387,-0.913 1.485,-1.635 1.787,-2.495 0.18,-0.516 -0.14,-1.505 0,-2.161 0.133,-0.53 0.646,-1.171 0.725,-1.423 0.627,-2.123 -0.02,-3.298 -0.362,-5.014 0.571,-1.543 1.924,-2.357 2.143,-3.946 0.094,-0.569 -0.276,-1.139 -0.348,-1.771 -0.243,-2.138 -0.325,-2.367 -0.711,-3.592 -0.615,-1.922 -1.466,-3.199 -1.789,-4.639 -0.49,-2.141 -0.458,-5.908 0,-7.523 0.353,-1.316 0.765,-3.412 1.067,-4.306 0.729,-2.102 2.435,-2.126 3.579,-3.928 0.52,-0.827 0.507,-2.257 1.073,-3.583 0.702,-1.598 2.443,-2.597 1.784,-5.01 1.585,-1.158 1.835,-3.645 3.943,-4.298 0.34,1.666 -1.386,3.127 -0.375,4.298 1.344,-0.367 1.305,-1.791 1.796,-2.49 0.223,-0.31 0.867,-0.424 1.084,-0.732 0.241,-0.314 0.115,-0.726 0.352,-1.076 0.702,-1.005 1.888,-1.562 2.147,-2.854 0.139,-0.667 -0.361,-2.074 0,-2.863 0.907,-1.996 6.95,-5.049 9.306,-5.377 1.071,-0.141 2.571,0.324 3.571,0 0.943,-0.282 1.716,-1.785 3.24,-2.497 1.364,-0.654 3.409,-0.499 4.283,-1.059 1.636,-1.086 1.904,-3.113 2.869,-3.946 0.551,-0.498 1.395,-0.691 2.145,-1.079 1.984,-1.024 2.929,-1.917 4.658,0 l 0.347,0 c 0.774,-1.497 2.056,-2.598 1.797,-5.009 -0.15,-1.233 -1.046,-1.81 -1.797,-2.872 -0.551,-0.766 -1.771,-1.801 -2.147,-2.855 -0.551,-1.584 0.212,-2.103 0,-3.575 -0.152,-1.025 -0.862,-1.786 -0.715,-2.503 0.194,-0.97 2.009,-2.584 2.862,-3.942 0.965,-1.544 1.914,-3.637 2.507,-4.652 0.533,-0.922 1.047,-2.421 1.434,-2.859 2.068,-2.366 5.374,-2.439 6.44,-5.363 1.436,-3.965 -0.151,-11.598 0,-15.398 0.063,-1.321 0.449,-2.668 0.359,-3.931 -0.13,-1.733 -0.989,-3.289 -1.081,-5.014 -0.019,-0.651 0.283,-1.523 0.371,-2.508 0.09,-1.144 -0.159,-2.489 0,-3.571 0.121,-0.972 0.644,-1.552 0.71,-2.517 0.192,-3.299 -0.641,-6.811 0,-9.655 0.276,-1.228 1.253,-2.483 1.785,-3.584 0.634,-1.255 1.128,-2.465 1.797,-3.572 2.458,-0.842 4.956,-4.361 8.224,-2.142 0.28,1.23 -0.619,1.917 -1.073,2.508 -0.655,0.855 -1.313,1.118 -1.793,2.142 -0.315,0.672 -0.795,1.624 -0.702,2.855 0.086,1.681 1.902,2.872 1.785,4.657 -0.103,1.353 -1.555,1.979 -1.446,3.219 1.176,1.816 2.297,3.674 2.156,6.801 1.736,0.17 1.495,2.327 2.509,3.218 1.466,0.551 3.278,0.762 4.291,1.787 0.424,1.004 0.404,2.478 0.365,3.945 0.851,0.444 2.164,0.459 2.856,1.07 1.315,1.038 1.315,2.668 2.148,3.93 0.439,0.679 1.363,1.166 1.79,1.801 0.504,0.726 1.176,1.791 1.439,2.493 0.692,1.945 -0.22,2.848 0.702,4.298 0.339,0.541 1.101,0.575 1.443,0.716 0.107,0.049 0.219,0.635 0.352,0.721 0.31,0.192 0.812,0.211 1.072,0.353 0.42,0.233 0.652,0.541 1.074,0.722 0.642,0.252 1.935,0.029 2.857,0.711 1.917,1.397 2.949,5.377 3.231,8.586 0.059,0.702 -0.263,2.084 0,2.877 0.219,0.665 1.454,1.947 2.143,2.85 0.87,1.185 1.868,1.815 2.138,3.229 C 3.07,-1.439 1.696,-1.277 0,0"
             style="fill:#e0e0e0;fill-opacity:1;fill-rule:nonzero;stroke:none"
             id="path1568" />
        </g>
        <g
           id="g1570"
           transform="translate(338.2617,576.4277)">
          <path
             inkscape:connector-curvature="0"
             d="m 0,0 c -0.411,2.284 -1.986,2.844 -2.147,5.003 -0.062,0.772 0.493,1.544 0.711,2.502 0.244,1.086 0.04,2.11 0.374,2.872 0.1,0.258 0.801,0.664 1.062,1.074 0.353,0.584 0.419,1.403 0.702,1.785 1.321,1.706 3.921,2.589 3.941,4.643 -0.3,0.77 -0.872,1.274 -2.145,1.094 C 1.925,18.075 1.434,17.57 0.353,16.819 -1.5,15.518 -2.366,15.572 -3.581,13.601 -4.783,11.653 -4.646,10.153 -5.015,7.147 -5.245,5.24 -5.887,3.056 -5.726,2.508 -5.215,0.791 -2.294,-0.764 0,0"
             style="fill:#e0e0e0;fill-opacity:1;fill-rule:nonzero;stroke:none"
             id="path1572" />
        </g>
        <g
           id="g1574"
           transform="translate(273.5049,563.9014)">
          <path
             inkscape:connector-curvature="0"
             d="M 0,0 C -2.724,0.669 -6.321,0.019 -8.61,0 -9.021,-2.054 -8.457,-4.708 -6.463,-5.37 -3.194,-6.464 2.101,-3.033 0,0"
             style="fill:#e0e0e0;fill-opacity:1;fill-rule:nonzero;stroke:none"
             id="path1576" />
        </g>
        <g
           id="g1578"
           transform="translate(443.1025,540.2881)">
          <path
             inkscape:connector-curvature="0"
             d="M 0,0 C -0.051,-0.781 0.297,-1.133 1.08,-1.084 1.141,-0.303 0.786,0.062 0,0"
             style="fill:#e0e0e0;fill-opacity:1;fill-rule:nonzero;stroke:none"
             id="path1580" />
        </g>
        <g
           id="g1582"
           transform="translate(444.1826,530.2686)">
          <path
             inkscape:connector-curvature="0"
             d="M 0,0 C 2.158,0.818 4.573,1.384 5.011,3.931 3.463,4.644 2.096,5.545 0,5.717 0.1,3.663 -1.572,1.374 0,0"
             style="fill:#e0e0e0;fill-opacity:1;fill-rule:nonzero;stroke:none"
             id="path1584" />
        </g>
        <g
           id="g1586"
           transform="translate(442.7598,522.0371)">
          <path
             inkscape:connector-curvature="0"
             d="m 0,0 c -0.652,-0.804 -1.049,-1.647 -1.804,-2.15 -1.857,-0.772 -4.143,-1.982 -4.646,-3.941 -0.361,-1.411 -0.874,-3.067 1.425,-3.581 0.871,0.687 0.653,2.457 1.796,2.864 1.525,0.345 2.731,1.176 3.941,1.793 1.393,0.709 2.688,1.28 3.935,2.148 C 4.424,1.21 5.719,6.785 1.788,7.157 1.277,5.441 2.215,3.656 1.788,2.143 1.516,1.23 0.516,0.65 0,0"
             style="fill:#e0e0e0;fill-opacity:1;fill-rule:nonzero;stroke:none"
             id="path1588" />
        </g>
        <g
           id="g1590"
           transform="translate(296.7422,522.0371)">
          <path
             inkscape:connector-curvature="0"
             d="M 0,0 C -0.532,-0.545 -0.627,-2.453 0.717,-2.15 1.273,-1.604 1.36,0.308 0,0"
             style="fill:#e0e0e0;fill-opacity:1;fill-rule:nonzero;stroke:none"
             id="path1592" />
        </g>
        <g
           id="g1594"
           transform="translate(302.4873,516.668)">
          <path
             inkscape:connector-curvature="0"
             d="M 0,0 C 1.213,-0.156 2.023,0.111 1.775,1.429 0.733,1.394 -0.241,1.302 0,0"
             style="fill:#e0e0e0;fill-opacity:1;fill-rule:nonzero;stroke:none"
             id="path1596" />
        </g>
        <g
           id="g1598"
           transform="translate(427.3555,502.3555)">
          <path
             inkscape:connector-curvature="0"
             d="M 0,0 C -0.513,-0.519 -0.513,-2.356 0,-2.865 1.526,-2.819 1.583,-1.108 1.082,0 L 0,0 z"
             style="fill:#e0e0e0;fill-opacity:1;fill-rule:nonzero;stroke:none"
             id="path1600" />
        </g>
        <g
           id="g1602"
           transform="translate(201.1982,495.1953)">
          <path
             inkscape:connector-curvature="0"
             d="m 0,0 c -0.35,1.917 -2.326,2.205 -4.29,2.492 l 0,-0.255 c -0.486,0.201 -0.955,0.416 -1.424,0.571 l 0,0.411 c 0.049,0.591 -2.208,0.591 -2.147,0 0.741,-0.2 1.011,-0.893 2.147,-0.727 l 0,0.298 1.424,-0.563 0,-0.434 C -3.598,0.57 -1.946,-1.21 0,0"
             style="fill:#e0e0e0;fill-opacity:1;fill-rule:nonzero;stroke:none"
             id="path1604" />
        </g>
        <g
           id="g1606"
           transform="translate(203.3437,493.0479)">
          <path
             inkscape:connector-curvature="0"
             d="M 0,0 C 1.406,-1.024 3.812,-0.692 4.652,0.717 4.235,2.453 -0.573,3.092 0,0"
             style="fill:#e0e0e0;fill-opacity:1;fill-rule:nonzero;stroke:none"
             id="path1608" />
        </g>
        <g
           id="g1610"
           transform="translate(429.8711,493.7646)">
          <path
             inkscape:connector-curvature="0"
             d="m 0,0 c -3.84,0.127 -1.823,-5.897 -0.717,-7.165 1.031,-0.029 2.344,0.203 2.874,-0.338 -1.386,-1.225 -0.188,-3.043 0,-4.308 0.139,-1.008 -0.132,-1.931 0,-2.145 0.402,-0.785 2.289,-1.946 2.852,-1.795 2.185,0.555 1.57,4.195 -0.362,5.362 0.058,0.887 0.058,1.741 -0.352,2.155 -1.153,1.24 -2.916,1.992 -3.571,3.94 C 0.25,-2.941 1.265,-1.206 0,0"
             style="fill:#e0e0e0;fill-opacity:1;fill-rule:nonzero;stroke:none"
             id="path1612" />
        </g>
        <g
           id="g1614"
           transform="translate(421.2773,460.4814)">
          <path
             inkscape:connector-curvature="0"
             d="M 0,0 C 0.129,1.509 -1.535,2.371 -2.497,2.498 -3.51,2.649 -4.415,1.957 -5.354,2.133 -5.865,2.26 -6.761,2.698 -7.152,2.87 c -0.65,0.258 -1.622,0.33 -1.784,1.071 0.01,1.176 0.603,1.781 0.35,3.224 -1.266,1.182 -1.944,1.484 -2.5,2.855 -0.732,1.776 -0.388,5.518 -1.068,6.791 -0.62,1.16 -2.468,1.584 -3.23,2.516 -0.405,0.485 -0.491,1.444 -0.712,1.786 -0.436,0.693 -0.662,0.662 -1.076,1.424 -0.092,0.292 -0.298,0.434 -0.713,0.358 -1.654,-3.496 3.45,-4.733 1.789,-8.235 -1.855,0.414 -2.216,2.331 -4.653,2.151 -0.766,-1.858 1.541,-2.932 2.506,-4.284 0.109,-0.161 -0.092,-0.541 0,-0.712 0.04,-0.121 0.622,-0.23 0.709,-0.346 0.111,-0.172 -0.079,-0.557 0,-0.733 0.064,-0.126 0.635,-0.212 0.714,-0.364 0.544,-0.933 1.012,-2.79 1.436,-3.207 1.2,-1.258 2.768,-2.832 3.941,-3.584 0.459,-0.311 1.272,-0.352 1.796,-0.711 0.952,-0.705 1.252,-1.796 2.142,-2.147 0.404,-0.166 1.558,0.18 2.497,0 C -4.351,0.586 -3.76,0.061 -3.22,0 -2.059,-0.131 -1.151,0.103 0,0"
             style="fill:#e0e0e0;fill-opacity:1;fill-rule:nonzero;stroke:none"
             id="path1616" />
        </g>
        <g
           id="g1618"
           transform="translate(424.1465,478.7344)">
          <path
             inkscape:connector-curvature="0"
             d="m 0,0 c -2.453,-2.441 -4.786,-5.004 -8.224,-6.437 -1.208,-4.385 3.648,-7.175 7.86,-6.094 0.776,1.86 2.499,3.938 2.87,5.747 0.182,0.897 -0.43,1.82 -0.365,2.845 0.074,1.155 1.058,1.673 0.716,2.871 C 2.037,-0.59 1.672,0.363 0,0"
             style="fill:#e0e0e0;fill-opacity:1;fill-rule:nonzero;stroke:none"
             id="path1620" />
        </g>
        <g
           id="g1622"
           transform="translate(428.4375,470.1416)">
          <path
             inkscape:connector-curvature="0"
             d="m 0,0 c -1.319,-1.002 -1.392,-3.894 -0.351,-5.366 l 3.57,0 c 0.372,1.126 -0.223,2.995 0,5.004 C 2.641,0.248 1.115,-0.069 0,0"
             style="fill:#e0e0e0;fill-opacity:1;fill-rule:nonzero;stroke:none"
             id="path1624" />
        </g>
        <g
           id="g1626"
           transform="translate(454.2021,467.6465)">
          <path
             inkscape:connector-curvature="0"
             d="M 0,0 C -1.782,0.625 -3.601,1.195 -5.009,1.059 -5.946,0.988 -6.795,0.176 -7.861,0.357 c -0.701,0.625 -1.033,1.61 -1.793,2.138 -0.958,0 -2.059,0.142 -2.507,-0.362 0.342,-1.513 0.728,-2.713 1.785,-3.576 0.407,-0.328 1.242,-0.131 1.783,-0.345 0.571,-0.241 0.972,-0.856 1.444,-1.083 0.654,-0.323 1.252,-0.035 1.783,-0.353 1.168,-0.702 1.014,-2.229 1.435,-3.593 1.746,-0.408 2.768,-1.63 4.643,-1.416 1.305,0.136 1.799,1.594 3.225,1.416 1.891,-0.605 2.042,-2.952 5.022,-2.493 0.56,1.746 -2.397,2.775 -2.156,5.365 C 4.718,-2.413 2.9,-1.046 0,0"
             style="fill:#e0e0e0;fill-opacity:1;fill-rule:nonzero;stroke:none"
             id="path1628" />
        </g>
        <g
           id="g1630"
           transform="translate(462.0791,442.5928)">
          <path
             inkscape:connector-curvature="0"
             d="m 0,0 c -0.334,0.596 -0.37,1.654 -0.715,2.144 -0.783,1.106 -1.896,1.575 -2.509,2.871 -1.101,2.285 -0.99,4.874 -2.142,6.074 -0.823,0.853 -0.787,2.387 -2.148,2.508 -2.066,-1.161 -0.753,-5.702 -2.867,-6.801 -2.227,0.401 -3.832,1.416 -4.645,3.224 0.311,0.873 0.834,1.547 0.702,2.854 -2.036,1.024 -4.165,1.775 -6.079,1.074 -1.866,-0.669 -1.967,-3.239 -3.942,-3.571 -0.78,0.283 -1.381,0.762 -2.495,0.712 -1.797,-1.191 -2.71,-3.254 -5.014,-3.931 -1.146,-5.528 -8.308,-2.942 -10.731,-6.8 -0.886,-1.402 -1.106,-4.021 -1.076,-5.727 0.049,-2.416 1.232,-4.833 1.076,-7.522 -0.079,-1.23 -1.126,-2.446 -0.714,-3.928 0.511,-0.209 0.87,-0.556 1.073,-1.077 1.813,-0.625 3.378,1.106 5.355,1.439 0.813,0.127 1.934,-0.283 2.879,0 1.072,0.337 1.895,1.409 2.85,1.781 0.893,0.342 2.222,0.539 3.229,0.721 4.394,0.791 6.527,0 7.51,-3.576 1.617,-0.769 2.802,-1.687 3.568,-3.235 0.604,-1.16 0.475,-2.326 1.097,-3.566 1.374,-1.594 4.583,-1.379 6.791,-2.15 0.87,1.025 2.697,1.127 3.94,1.786 1.126,1.116 1.014,2.556 1.783,3.93 0.084,0.142 0.606,0.211 0.722,0.363 0.203,0.283 0.193,0.823 0.347,1.074 0.399,0.601 0.739,1.302 1.081,1.798 0.799,1.129 1.944,1.791 2.498,2.855 0.2,0.369 0.28,1.18 0.359,1.433 0.475,1.396 1.288,3.21 1.444,4.644 0.438,4.074 -1.102,5.44 -2.515,7.882 C 0.531,-0.394 0.139,-0.242 0,0"
             style="fill:#e0e0e0;fill-opacity:1;fill-rule:nonzero;stroke:none"
             id="path1632" />
        </g>
        <g
           id="g1634"
           transform="translate(344.3506,455.8291)">
          <path
             inkscape:connector-curvature="0"
             d="m 0,0 c -1.096,-0.771 -1.305,-1.946 -2.505,-2.859 -0.636,-0.489 -1.659,-0.358 -2.15,-0.722 -1.711,-1.221 -1.023,-2.679 -1.434,-5.005 -0.173,-0.962 -0.969,-1.714 -1.061,-2.854 -0.173,-1.712 -0.032,-2.65 1.061,-3.951 3.901,-0.796 4.784,3.527 5.727,6.083 C 0.689,-6.44 2.51,-2.576 1.073,0 L 0,0 z"
             style="fill:#e0e0e0;fill-opacity:1;fill-rule:nonzero;stroke:none"
             id="path1636" />
        </g>
        <g
           id="g1638"
           transform="translate(486.4092,417.5342)">
          <path
             inkscape:connector-curvature="0"
             d="m 0,0 -0.712,0 c 0.201,-3.526 -2.59,-4.102 -1.796,-8.224 l -3.217,0 c -1.046,-1.111 -1.912,-2.517 -3.212,-3.576 -2.347,-1.917 -6.748,-2.598 -5.376,-6.803 3.67,-1.673 4.774,2.58 6.079,3.931 0.173,0.171 0.905,0.243 1.084,0.358 0.582,0.393 0.798,0.858 1.061,1.438 0.05,0.102 0.63,0.248 0.724,0.355 0.97,1.17 1.773,2.208 2.505,3.228 1.364,0.147 2.582,1.045 3.219,1.786 0.374,0.419 0.412,1.05 0.714,1.422 1.144,1.393 1.846,1.331 1.795,2.517 C 2.777,-1.911 0.823,-1.651 0,0"
             style="fill:#e0e0e0;fill-opacity:1;fill-rule:nonzero;stroke:none"
             id="path1640" />
        </g>
        <g
           id="g1642"
           transform="translate(450.2715,412.8916)">
          <path
             inkscape:connector-curvature="0"
             d="m 0,0 c -1.078,-1.004 -1.545,-3.768 -0.359,-5.015 2.717,-0.101 3.69,1.566 3.582,4.289 C 2.197,-0.419 1.004,-0.292 0,0"
             style="fill:#e0e0e0;fill-opacity:1;fill-rule:nonzero;stroke:none"
             id="path1644" />
        </g>
      </g>
    </g>
    <text
       style="font-size:15px"
       y="481.01074"
       x="361.74265"
       id="text1646">
      <tspan
         style="font-size:57.3105011px;font-variant:normal;font-weight:bold;font-stretch:normal;writing-mode:lr-tb;fill:#4c4c4c;fill-opacity:1;fill-rule:nonzero;stroke:none;font-family:Open Sans;-inkscape-font-specification:OpenSans-Bold"
         x="361.74265 397.84827 422.89297 457.10733 491.32169 517.34064 531.38171 563.41827"
         y="481.01074"
         sodipodi:role="line"
         id="tspan1648">Asuncin</tspan>
    </text>
    <g
       transform="matrix(1.25,0,0,-1.25,24.114539,1093.9355)"
       id="g1650">
      <g
         id="g1652"
         clip-path="url(#clipPath1654)">
        <g
           id="g1658"
           transform="translate(169.8145,509.1953)">
          <path
             inkscape:connector-curvature="0"
             d="m 0,0 14.084,0 0,-17.604 c -3.826,-1.312 -8.025,-1.962 -12.617,-1.962 -5.027,0 -8.913,1.457 -11.663,4.373 -2.751,2.916 -4.117,7.084 -4.117,12.492 0,5.264 1.499,9.359 4.509,12.295 3.008,2.937 7.218,4.385 12.637,4.385 2.057,0 3.99,-0.186 5.81,-0.579 1.833,-0.382 3.424,-0.869 4.78,-1.459 L 10.619,5.023 C 8.271,6.184 5.687,6.762 2.873,6.762 0.309,6.762 -1.687,5.914 -3.093,4.248 -4.51,2.572 -5.202,0.186 -5.202,-2.93 c 0,-3.05 0.63,-5.377 1.913,-6.978 1.261,-1.604 3.091,-2.391 5.491,-2.391 1.314,0 2.523,0.115 3.618,0.375 l 0,5.108 -5.82,0 L 0,0 z"
             style="fill:#4c4c4c;fill-opacity:1;fill-rule:nonzero;stroke:none"
             id="path1660" />
        </g>
        <g
           id="g1662"
           transform="translate(216.4199,507.084)">
          <path
             inkscape:connector-curvature="0"
             d="m 0,0 c 0,-5.439 -1.488,-9.639 -4.497,-12.586 -2.989,-2.947 -7.207,-4.416 -12.637,-4.416 l -10.557,0 0,32.639 11.292,0 c 5.231,0 9.276,-1.346 12.128,-4.024 C -1.416,8.943 0,5.066 0,0 m -9.151,-0.311 c 0,3 -0.589,5.213 -1.768,6.661 -1.18,1.437 -2.989,2.162 -5.397,2.162 l -2.566,0 0,-18.285 1.966,0 c 2.687,0 4.652,0.777 5.894,2.337 1.251,1.541 1.871,3.93 1.871,7.125"
             style="fill:#4c4c4c;fill-opacity:1;fill-rule:nonzero;stroke:none"
             id="path1664" />
        </g>
        <g
           id="g1666"
           transform="translate(233.5459,509.1953)">
          <path
             inkscape:connector-curvature="0"
             d="m 0,0 14.096,0 0,-17.604 c -3.827,-1.312 -8.035,-1.962 -12.617,-1.962 -5.026,0 -8.915,1.457 -11.666,4.373 -2.74,2.916 -4.114,7.084 -4.114,12.492 0,5.264 1.498,9.359 4.507,12.295 3,2.937 7.218,4.385 12.638,4.385 2.048,0 3.992,-0.186 5.822,-0.579 1.81,-0.382 3.403,-0.869 4.756,-1.459 L 10.632,5.023 C 8.284,6.184 5.697,6.762 2.886,6.762 c -2.576,0 -4.561,-0.848 -5.977,-2.514 -1.397,-1.676 -2.1,-4.062 -2.1,-7.178 0,-3.05 0.63,-5.377 1.902,-6.978 1.272,-1.604 3.102,-2.391 5.501,-2.391 1.313,0 2.525,0.115 3.621,0.375 l 0,5.108 L 0,-6.816 0,0 z"
             style="fill:#4c4c4c;fill-opacity:1;fill-rule:nonzero;stroke:none"
             id="path1668" />
        </g>
      </g>
    </g>
  </g>
</svg>
