<?xml version="1.0" encoding="UTF-8" standalone="no"?>
<!-- Created with Inkscape (http://www.inkscape.org/) -->

<svg
   xmlns:dc="http://purl.org/dc/elements/1.1/"
   xmlns:cc="http://creativecommons.org/ns#"
   xmlns:rdf="http://www.w3.org/1999/02/22-rdf-syntax-ns#"
   xmlns:svg="http://www.w3.org/2000/svg"
   xmlns="http://www.w3.org/2000/svg"
   xmlns:sodipodi="http://sodipodi.sourceforge.net/DTD/sodipodi-0.dtd"
   xmlns:inkscape="http://www.inkscape.org/namespaces/inkscape"
   id="svg2"
   version="1.1"
   inkscape:version="0.48.4 r9939"
   width="1771.65"
   height="1771.65"
   xml:space="preserve"
   sodipodi:docname="firma fondo cyan firma blanca .ai"><metadata
     id="metadata8"><rdf:RDF><cc:Work
         rdf:about=""><dc:format>image/svg+xml</dc:format><dc:type
           rdf:resource="http://purl.org/dc/dcmitype/StillImage" /><dc:title></dc:title></cc:Work></rdf:RDF></metadata><defs
     id="defs6"><clipPath
       clipPathUnits="userSpaceOnUse"
       id="clipPath18"><path
         d="m 0,1417.32 1417.32,0 L 1417.32,0 0,0 0,1417.32 z"
         id="path20" /></clipPath></defs><sodipodi:namedview
     pagecolor="#ffffff"
     bordercolor="#666666"
     borderopacity="1"
     objecttolerance="10"
     gridtolerance="10"
     guidetolerance="10"
     inkscape:pageopacity="0"
     inkscape:pageshadow="2"
     inkscape:window-width="1301"
     inkscape:window-height="744"
     id="namedview4"
     showgrid="false"
     inkscape:zoom="0.13320915"
     inkscape:cx="885.82501"
     inkscape:cy="885.82501"
     inkscape:window-x="65"
     inkscape:window-y="24"
     inkscape:window-maximized="1"
     inkscape:current-layer="g10" /><g
     id="g10"
     inkscape:groupmode="layer"
     inkscape:label="firma fondo cyan firma blanca "
     transform="matrix(1.25,0,0,-1.25,0,1771.65)"><path
       d="m 0,0 1417.32,0 0,1417.32 L 0,1417.32 0,0 z"
       style="fill:#00b4c5;fill-opacity:1;fill-rule:nonzero;stroke:none"
       id="path12" /><g
       id="g14"><g
         id="g16"
         clip-path="url(#clipPath18)"><g
           id="g22"
           transform="translate(1208.9885,872.3616)"><path
             d="m 0,0 c -1.622,11.623 -11.506,24.211 -24.211,23.59 -11.05,-0.546 -20.499,-9.295 -27.392,-17.153 -7.562,-8.574 -14.02,-18.527 -18.474,-29.057 -3.425,-8.134 -6.013,-16.682 -9.11,-24.932 -3.457,-9.264 -7.932,-17.891 -11.856,-26.942 -4.04,-9.29 -6.024,-19.386 -8.197,-29.227 -1.177,-5.239 -2.398,-10.473 -3.85,-15.643 -1.326,-4.629 -3.383,-9.183 -3.934,-13.977 -0.287,-2.434 0.954,-6.034 -0.213,-7.985 -1.156,-2.01 -2.099,-4.152 -3.001,-6.3 -1.644,-4.019 -3.362,-7.895 -5.843,-11.522 -5.006,-7.296 -11.814,-13.166 -17.817,-19.624 -3.298,-3.548 -6.596,-7.095 -10.403,-10.123 -2.736,-2.189 -6.362,-5.238 -9.979,-5.567 -3.33,-0.26 -4.836,-1.485 -7.2,-3.611 -1.814,-1.617 -4.009,-3.426 -6.544,-3.616 -8.706,-0.658 -10.499,16.617 -11.326,22.334 -0.233,1.585 -0.053,4.348 -1.156,5.551 -2.216,2.349 -4.263,4.825 -6.469,7.169 -4.401,4.64 -10.17,9.693 -17.063,8.479 -11.199,-1.989 -16.745,-16.019 -21.528,-24.779 -4.688,-8.627 -11.071,-20.25 -22.45,-19.995 4.824,14.916 9.798,30.15 18.346,43.39 4.952,7.662 18.219,23.993 27.922,13.77 5.08,-5.339 8.389,-16.416 17.658,-14.55 6.15,1.241 9.586,6.3 9.226,12.413 -0.382,6.841 -4.422,12.276 -9.035,17 -5.717,5.811 -12.917,10.594 -21.136,11.835 -8.367,1.289 -17.954,0.546 -26.056,-1.845 -4.359,-1.283 -8.569,-3.224 -12.132,-6.087 -1.601,-1.278 -3.054,-2.742 -4.327,-4.348 -1.135,-1.448 -1.994,-4.014 -3.637,-4.651 -7.912,-3.054 -10.987,-13.897 -14.137,-20.891 -4.168,-9.115 -7.731,-18.426 -11.422,-27.737 -3.085,-7.678 -7.529,-16.491 -3.541,-24.609 1.866,-3.812 2.81,-7.386 4.114,-11.374 0.923,-2.831 2.312,-5.52 4.178,-7.837 3.617,-4.486 8.834,-7.28 14.423,-8.378 13.723,-2.678 25.579,3.929 35.569,12.641 6.628,5.806 13.034,12.148 20.956,16.157 1.834,0.944 3.34,-2.858 4.072,-4.427 0.721,-1.565 1.293,-3.161 2.078,-4.704 1.909,-3.754 5.239,-5.546 8.378,-8.161 6.628,-5.493 11.867,-10.541 20.955,-10.875 7.572,-0.276 15.441,1.724 22.239,5.059 5.79,2.805 10.414,7.911 15.748,11.464 2.492,1.67 5.377,3.42 8.431,3.691 2.375,0.195 2.11,-1.602 2.439,-3.681 0.414,-2.402 0.626,-4.825 0.785,-7.253 0.625,-10.271 0.583,-20.129 3.213,-30.166 1.358,-5.106 2.895,-10.122 3.935,-15.292 0.795,-4.014 1.484,-7.97 3.033,-11.798 5.642,-14.153 19.205,-25.378 34.699,-25.378 6.84,6.146 3.393,14.815 -0.488,21.549 -3.987,6.968 -6.459,13.347 -6.713,21.47 -0.382,10.26 0.287,20.478 0.212,30.733 -0.053,10.027 -1.495,20.011 -2.121,30.017 -0.572,9.582 -0.498,19.566 2.599,28.745 2.767,8.134 7.592,15.356 12.588,22.238 5.206,7.217 10.371,14.338 14.867,22.032 5.069,8.675 9.757,17.593 14.115,26.671 8.972,18.75 16.375,38.199 23.968,57.569 C -6.098,-33.427 2.291,-16.714 0,0 m -29.269,-15.446 c -0.032,-0.933 -0.149,-1.856 -0.308,-2.773 -0.456,-2.551 -1.167,-5.085 -1.941,-7.578 -1.93,-6.156 -4.358,-12.169 -6.829,-18.112 -4.624,-11.078 -9.121,-22.313 -13.946,-33.284 -3.245,-7.328 -8.007,-13.58 -10.615,-21.162 -0.955,-2.853 -2.143,-6.05 -4.741,-7.853 -1.092,-0.732 -1.93,-1.373 -2.205,0.185 -0.191,1.056 -0.17,2.148 -0.096,3.208 0.499,5.955 2.333,11.713 3.627,17.514 1.856,8.368 3.383,16.263 7.275,24.02 2.227,4.423 4.793,8.41 6.267,13.204 1.316,4.236 2.312,8.6 4.253,12.598 4.136,8.341 11.019,15.446 17.647,21.841 1.707,0 1.696,-0.185 1.612,-1.808 m -246.808,-224.495 c -2.652,7.678 -9.29,13.383 -13.755,19.985 -5.069,7.466 -8.028,17.19 -9.735,25.955 -1.93,10.101 -0.753,20.24 -3.68,30.192 -1.463,5.022 -3.234,9.948 -4.571,14.996 -0.88,3.298 -1.145,6.861 -2.906,9.82 -5.662,9.565 -21.835,16.151 -32.376,11.851 -3.298,-1.368 -6.331,-3.898 -9.205,-5.955 -3.235,-2.312 -6.437,-4.767 -9.163,-7.625 -5.833,-6.182 -7.254,-14.99 -11.676,-22.037 -2.715,1.58 -3.616,4.582 -3.68,7.535 -0.032,1.644 0.127,3.272 0.372,4.889 0.254,1.877 -0.425,3.171 -1.051,4.947 -2.736,7.811 -4.825,15.854 -8.324,23.384 -6.533,13.988 -20.68,25.786 -35.887,29.328 -4.677,1.103 -9.46,0.594 -14.147,-0.09 -4.02,-0.584 -8.134,-0.674 -12.111,-1.374 -5.928,-0.997 -10.849,-4.417 -14.741,-8.865 -8.07,-9.227 -12.1,-21.656 -21.39,-29.917 -6.618,-5.891 -8.229,-13.728 -12.641,-21.056 -2.556,-4.226 -4.03,-8.463 -5.991,-12.933 -1.602,-3.637 -4.264,-6.575 -6.109,-10.095 -3.447,-6.549 -3.755,-16.03 -3.648,-23.342 0.095,-7.355 1.58,-14.783 5.376,-21.173 4.211,-7.084 10.923,-12.296 18.485,-15.392 7.349,-3.018 17.265,-6.035 25.218,-4.184 3.818,0.896 7.191,2.869 10.541,4.82 2.917,1.654 6.162,2.927 8.898,4.867 4.465,3.092 7.126,8.033 8.664,13.161 3.5,11.708 2.333,24.778 0.371,36.682 -2.333,13.951 -9.173,30.829 1.432,43.152 2.28,2.624 5.25,5.573 3.245,9.205 -0.753,1.368 -1.919,2.667 -2.132,4.258 -0.328,2.274 0.966,2.534 2.811,2.624 5.535,0.25 10.244,-2.343 13.309,-6.888 6.787,-10.069 6.543,-24.036 7.307,-35.627 0.668,-10.329 1.559,-20.61 2.524,-30.913 0.785,-8.378 0.286,-17.44 4.189,-25.134 6.225,-12.248 21.507,-17.02 33.702,-10.938 13.458,6.681 15.377,21.787 17.795,35.059 1.209,6.697 2.588,13.718 6.278,19.524 0.955,1.538 2.1,2.953 3.372,4.189 1.623,1.564 2.387,0.111 3.754,-1.32 2.344,-2.477 4.158,-5.372 5.568,-8.453 6.172,-13.558 5.727,-28.85 14.879,-41.189 9.438,-12.758 25.113,-21.104 41.094,-16.772 -0.096,0.297 -0.191,0.568 -0.265,0.849 m -184.642,64.499 c -0.743,-9.82 -3.022,-19.778 -6.49,-28.994 -1.103,-2.927 -2.302,-6.352 -4.804,-8.404 -2.015,-1.66 -4.974,-2.848 -7.594,-2.126 -3.085,0.895 -3.489,4.157 -3.573,6.877 -0.255,9.157 3.033,18.845 5.451,27.583 2.269,8.171 5.291,16.241 10.329,23.156 7.922,0 7.073,-13.044 6.681,-18.092 m -57.595,64.531 c 0.435,6.951 -4.719,13.436 -10.574,16.549 -7.391,3.934 -14.581,2.417 -21.93,-0.775 -2.471,-1.065 -4.932,-2.19 -7.466,-3.07 -1.708,-0.572 -3.394,-0.864 -4.73,-2.158 -2.078,-1.988 -3.139,-4.899 -6.373,-5.202 -1.877,-4.475 -4.699,-8.446 -7.848,-12.105 -1.294,-1.517 -3.648,-3.16 -3.733,-5.143 -0.074,-1.856 -0.838,-3.532 -1.867,-5.07 -2.216,-3.335 -4.549,-6.071 -5.418,-10.117 -0.786,-3.605 -0.637,-7.386 -0.096,-11.034 2.577,-17.313 12.811,-31.104 22.376,-45.198 4.284,-6.305 8.898,-14.545 7.561,-22.482 -1.018,-6.077 -7.773,-9.943 -12.948,-12.159 -6.373,-2.725 -11.4,-2.815 -17.827,-0.323 -6.543,2.539 -15.123,6.569 -21.151,0.795 -1.066,-2.943 -1.236,-6.05 -0.228,-9.035 1.097,-3.283 3.266,-6.04 5.26,-8.781 1.898,-2.646 3.192,-5.536 4.921,-8.246 3.117,-4.851 10.541,-5.785 15.758,-6.347 12.429,-1.299 25.388,-0.837 37.213,3.442 12.694,4.565 22.981,13.982 25.208,27.726 2.206,13.373 -4.062,24.811 -11.729,35.219 -7.392,10.038 -16.077,20.133 -17.732,32.971 -1.007,7.815 1.103,15.621 5.653,22.042 4.263,6.008 10.085,9.862 16.087,13.903 4.995,3.431 11.178,7.991 11.613,14.598 m -72.517,-17.43 c 1.782,2.429 1.241,5.701 0.425,8.384 -0.679,2.243 -1.803,6.999 -4.051,7.858 -8.537,3.203 -18.559,5.891 -27.754,4.597 -7.328,-1.013 -13.531,-5.138 -18.924,-9.995 -5.541,-5.006 -10.758,-10.404 -16.167,-15.536 -10.383,-9.847 -15.451,-25.606 -29.529,-31.248 0.291,3.208 -1.538,6.035 -2.922,8.76 -1.57,3.017 -1.654,6.045 -1.856,9.354 -0.318,5.859 -3.187,10.912 -7.598,14.698 -8.129,6.951 -20.59,9.751 -29.943,3.611 -5.202,-3.431 -8.171,-8.929 -12.047,-13.622 -3.946,-4.804 -8.325,-9.221 -12.657,-13.686 -9.274,-9.47 -17.037,-19.841 -25.129,-30.287 -5.78,-7.498 -11.506,-15.102 -17.593,-22.371 -4.093,-4.884 -10.287,-11.666 -17.456,-9.534 -11.899,3.558 -15.536,22.636 -5.886,30.272 2.174,1.691 4.741,2.38 7.207,3.483 2.402,1.082 4.735,2.275 7.067,3.5 5.605,2.953 11.136,6.071 16.778,8.956 4.973,2.518 9.937,3.95 14.327,7.577 3.372,2.773 6.766,5.064 10.472,7.392 3.33,2.083 6.538,4.597 8.468,8.112 2.185,16.714 -8.802,32.245 -22.143,41.131 -14.242,9.476 -32.218,12.238 -47.176,2.827 -15.032,-9.46 -25.478,-24.519 -30.94,-41.142 -0.763,-2.365 -1.601,-4.687 -2.672,-6.899 -0.965,-1.967 -1.453,-3.674 -3.775,-3.637 -3.701,0.074 -7.392,0.366 -11.072,-0.037 -2.062,-0.234 -4.146,-0.695 -6.013,-1.655 -2.142,-1.065 -2.375,-2.041 -2.492,-4.353 -0.175,-3.606 0.668,-7.201 2.365,-10.393 1.866,-3.515 4.634,-6.485 7.673,-9.03 2.221,-1.845 5.095,-3.335 6.845,-5.721 2.312,-3.181 2.248,-7.917 3.426,-11.618 1.24,-3.976 3.085,-7.699 4.846,-11.421 6.076,-12.896 13.171,-25.144 26.316,-31.831 10.97,-5.551 24.067,-7.969 36.03,-4.258 10.382,3.197 18.956,10.404 26.342,18.15 15.68,16.528 27.701,38.268 47.982,49.759 0.202,-1.946 0.515,-3.887 0.843,-5.817 1.74,-9.635 4.264,-18.909 3.839,-28.771 -0.381,-8.754 -2.062,-18.521 1.846,-26.788 2.746,-5.833 8.271,-10.599 14.698,-11.755 7.318,-1.353 13.363,2.725 17.095,8.764 4.433,7.132 5.759,15.664 10.022,22.833 2.174,3.679 5.207,6.66 8.028,9.814 2.805,3.161 4.941,6.592 6.925,10.298 8.786,16.543 15.048,34.8 28.145,48.645 5.091,5.371 11.072,9.719 17.636,13.091 3.532,1.846 7.19,3.41 10.902,4.884 2.991,1.172 7.233,1.925 9.247,4.655 m -235.948,-36.141 c -2.11,-0.096 -3.096,-0.271 -3.118,2.025 -0.01,1.384 0.181,2.8 0.584,4.11 0.7,2.317 1.967,4.417 3.414,6.342 3.468,4.618 7.244,8.637 10.16,13.717 3.128,5.462 6.617,10.886 11.676,14.789 4.56,3.542 10.7,5.843 15.44,1.315 3.733,-3.564 4.91,-9.513 3.521,-14.397 -2.81,-9.841 -14.635,-13.298 -22.26,-18.442 -5.779,-3.913 -12.131,-9.141 -19.417,-9.459 m -6.692,93.88 c 22.345,27.466 5.101,63.497 -18.887,83.312 -6.999,5.753 -14.614,11.177 -22.201,16.146 -8.235,5.356 -17.037,8.314 -26.285,11.432 -4.708,1.58 -9.141,3.833 -14.056,4.613 -4.598,0.721 -9.327,0.832 -13.776,2.264 -9.582,3.091 -18.649,2.567 -28.58,2.567 -11.273,-0.483 -22.026,-4.2 -33.231,-5.186 -4.104,-0.372 -8.611,-0.96 -11.549,-4.173 -2.555,-2.79 -4.517,-6.469 -5.869,-9.969 -2.667,-6.93 -2.339,-14.91 4.905,-18.739 9.83,-5.207 22.037,-3.085 32.403,-0.981 9.783,2.005 19.338,3.829 29.391,3.701 10.441,-0.164 20.585,-1.988 30.802,-3.865 8.018,-1.495 16.369,-2.095 23.92,-5.34 7.577,-3.218 13.897,-9.491 19.12,-15.732 5.239,-6.31 9.433,-14.014 8.665,-22.451 -0.706,-8.234 -5.849,-15.159 -11.783,-20.525 -5.541,-5.011 -11.899,-9.529 -18.017,-13.792 -5.69,-3.95 -12.811,-8.67 -20.086,-8.124 1.644,5.886 5.413,10.738 5.594,17.048 0.196,6.697 -0.774,12.683 1.214,19.248 1.676,5.61 4.147,11.024 4.274,16.952 0.096,4.533 -1.14,9.014 -3.075,13.124 -2.684,5.731 -7.053,11.49 -13.114,13.902 -6.41,2.556 -13.239,-0.196 -17.673,-5.132 -9.178,-10.208 -6.744,-25.945 -9.343,-38.417 -1.129,-5.445 -2.947,-10.493 -3.7,-16.05 -0.849,-6.273 -1.458,-12.615 -3.065,-18.75 -1.315,-5.042 -3.468,-10.7 -8.171,-13.494 -5.112,-3.023 -10.171,4.586 -12.397,8.197 -2.975,4.9 -5.902,10.293 -11.894,11.66 -5.175,1.177 -10.461,-0.127 -13.32,-4.846 -6.829,-11.278 1.432,-24.105 10.998,-30.277 6.904,-4.454 14.905,-6.819 21.947,-11.019 5.048,-2.99 5.869,-8.966 5.371,-14.327 -0.594,-6.506 -2.694,-12.768 -4.454,-19.025 -1.941,-6.888 -2.058,-13.701 -3.107,-20.738 -1.474,-10.043 -4.078,-19.879 -5.923,-29.826 -1.93,-10.329 -3.076,-20.854 -4.386,-31.274 -0.614,-4.984 -1.229,-9.99 -1.5,-15.043 -0.217,-4.12 -0.377,-8.245 -1.373,-12.28 -1.686,-6.835 -7.323,-12.705 -2.291,-19.694 7.434,-10.313 26.846,-11.247 34.116,-0.498 3.468,5.122 4.783,11.495 5.536,17.54 1.145,9.222 1.484,18.495 2.354,27.769 0.976,10.435 2.291,20.839 4.406,31.115 2.084,10.122 4.736,20.102 6.74,30.208 1.734,8.733 2.725,17.456 3.086,26.343 0.265,6.447 0.53,13.203 3.038,19.242 2.975,7.201 8.733,10.064 15.754,12.482 8.813,3.028 17.901,5.207 26.533,8.717 8.548,3.489 15.907,8.723 23.273,14.195 7.1,5.271 14.077,10.907 19.666,17.79"
             style="fill:#ffffff;fill-opacity:1;fill-rule:nonzero;stroke:none"
             id="path24" /></g><g
           id="g26"
           transform="translate(1217.7695,542.0139)"><path
             d="m 0,0 c 0,3.202 -2.63,5.811 -5.875,5.811 -3.224,0 -5.843,-2.609 -5.843,-5.811 0,-3.203 2.619,-5.812 5.843,-5.812 C -2.63,-5.812 0,-3.203 0,0 m -1.347,0 c 0,-2.471 -2.015,-4.47 -4.528,-4.47 -2.492,0 -4.497,1.999 -4.497,4.47 0,2.46 2.005,4.464 4.497,4.464 2.513,0 4.528,-2.004 4.528,-4.464 m -1.93,-3.176 -1.538,2.953 c 0.552,0.287 0.87,0.848 0.87,1.591 0,1.113 -0.626,1.802 -1.93,1.802 l -2.026,0 0,-6.346 1.304,0 0,2.709 0.584,0 1.326,-2.709 1.41,0 z M -5.25,1.336 c 0,-0.445 -0.254,-0.748 -0.763,-0.748 l -0.584,0 0,1.458 0.584,0 c 0.509,0 0.763,-0.222 0.763,-0.71 m -3.594,-19.889 c 0,10.202 -7.328,17.603 -17.594,17.603 -10.032,0 -17.636,-7.343 -17.636,-17.683 0,-10.393 7.349,-17.593 17.562,-17.593 10.074,0 17.668,7.444 17.668,17.673 m -6.151,-0.08 c 0,-7.063 -4.699,-12.111 -11.443,-12.111 -6.734,0 -11.496,5.048 -11.496,12.111 0,7.095 4.656,12.217 11.496,12.217 6.681,0 11.443,-5.175 11.443,-12.217 m -39.79,-17.047 5.759,0 0,46.666 -6.077,0 0,-16.829 c -2.164,2.608 -6.194,4.893 -11.612,4.893 -10.086,0 -17.308,-7.646 -17.308,-17.683 0,-10.457 7.148,-17.593 17.445,-17.593 5.812,0 10.001,2.985 11.793,5.61 l 0,-5.064 z m -0.085,17.047 c 0,-7.063 -4.719,-12.18 -11.527,-12.18 -6.703,0 -11.496,5.117 -11.496,12.18 0,7.095 4.74,12.28 11.496,12.28 6.766,0 11.527,-5.185 11.527,-12.28 m -40.68,-17.047 6.055,0 0,22.53 c 0,6.638 -2.884,12.015 -10.647,12.015 -4.284,0 -6.766,-2.026 -7.72,-3.436 l 0,3.065 -6.077,0 0,-34.174 6.077,0 0,21.713 c 0,4.46 2.163,7.402 6.235,7.402 4.157,0 6.077,-2.662 6.077,-7.222 l 0,-21.893 z m -32.865,0 6.055,0 0,34.174 -6.118,0 0,-21.645 c 0,-4.475 -2.164,-7.391 -6.193,-7.391 -4.02,0 -5.929,2.662 -5.929,7.195 l 0,21.841 -6.077,0 0,-22.546 c 0,-6.761 3.012,-11.984 10.616,-11.984 4.221,0 6.639,1.898 7.646,3.521 l 0,-3.165 z m -32.482,0 6.076,0 0,22.689 c 0,6.575 -3.012,11.856 -10.923,11.856 -4.475,0 -7.222,-2.1 -8.76,-4.539 -1.336,2.54 -3.923,4.539 -8.409,4.539 -4.274,0 -6.522,-1.999 -7.583,-3.436 l 0,3.065 -6.076,0 0,-34.174 6.076,0 0,21.512 c 0,4.602 1.983,7.603 6.003,7.603 3.87,0 5.716,-2.81 5.716,-7.222 l 0,-21.893 6.087,0 0,21.957 c 0.053,4.216 2.089,7.158 5.991,7.158 3.956,0 5.802,-2.741 5.802,-7.158 l 0,-21.957 z m -64.054,0 6.066,0 0,22.53 c 0,6.638 -2.864,12.015 -10.669,12.015 -4.263,0 -6.755,-2.026 -7.72,-3.436 l 0,3.065 -6.066,0 0,-34.174 6.066,0 0,21.713 c 0,4.46 2.174,7.402 6.246,7.402 4.136,0 6.077,-2.662 6.077,-7.222 l 0,-21.893 z m -32.546,0 6.065,0 0,34.174 -6.119,0 0,-21.645 c 0,-4.475 -2.206,-7.391 -6.204,-7.391 -4.019,0 -5.938,2.662 -5.938,7.195 l 0,21.841 -6.056,0 0,-22.546 c 0,-6.761 3.002,-11.984 10.595,-11.984 4.22,0 6.639,1.898 7.657,3.521 l 0,-3.165 z m -51.116,25.626 c 0,2.598 1.856,4.211 4.74,4.211 3.32,0 4.91,-2.196 5.09,-5.621 l 5.632,0 c -0.074,6.172 -3.468,10.329 -10.594,10.329 -6.258,0 -10.722,-3.616 -10.722,-9.311 0,-4.099 1.728,-7.185 6.182,-9.056 2.228,-0.955 4.083,-1.305 6.066,-1.994 2.556,-0.902 3.956,-2.174 3.956,-4.996 0,-3.048 -2.492,-4.697 -5.482,-4.617 -4.349,0 -5.621,2.847 -5.674,6.166 l -5.897,0 c -0.127,-5.87 2.832,-11.093 11.443,-11.093 6.31,0 11.559,3.426 11.559,10.138 0,5.473 -2.704,8.177 -7.423,9.836 -1.856,0.621 -3.648,1.003 -5.429,1.639 -2.281,0.827 -3.447,2.184 -3.447,4.369 m -11.157,-10.371 c 0.127,1.034 0.127,2.126 0.127,2.757 -0.127,10.266 -6.68,16.718 -16.713,16.718 -9.767,0 -16.639,-7.401 -16.639,-17.747 0,-10.636 6.999,-17.529 17.276,-17.529 8.038,0 13.097,4.538 15.324,9.734 l -4.677,2.44 c -2.153,-4.009 -5.207,-6.761 -10.647,-6.761 -6.437,0 -10.605,3.945 -11.029,10.388 l 26.978,0 z m -6.182,4.931 -20.627,0 c 0.774,5.753 4.624,9.327 10.16,9.327 5.928,0 10.096,-3.712 10.467,-9.327 m -53.152,-20.186 5.366,0 0,22.037 c 0,7.524 -3.383,12.508 -11.994,12.508 -7.667,0 -11.358,-4.338 -11.432,-10.329 l 5.673,0 c 0.064,2.789 1.528,5.419 5.706,5.419 3.988,0 6.055,-2.503 6.055,-6.904 l 0,-2.853 c -1.156,1.061 -3.669,2.27 -7.105,2.27 -6.83,0 -11.549,-4.698 -11.549,-11.21 0,-7.03 5.048,-11.432 11.549,-11.432 3.638,0 6.14,1.336 7.731,3.203 l 0,-2.709 z m -0.498,10.938 c 0,-3.642 -2.811,-6.447 -6.512,-6.447 -3.775,0 -6.405,2.805 -6.405,6.447 0,3.633 2.503,6.374 6.352,6.374 3.754,0 6.565,-2.694 6.565,-6.374 m -31.391,-10.938 6.035,0 0,22.53 c 0,6.638 -2.864,12.015 -10.627,12.015 -4.274,0 -6.787,-2.026 -7.71,-3.436 l 0,3.065 -6.097,0 0,-34.174 6.097,0 0,21.713 c 0,4.46 2.142,7.402 6.236,7.402 4.136,0 6.066,-2.662 6.066,-7.222 l 0,-21.893 z m -23.341,17.127 c 0,10.202 -7.371,17.603 -17.636,17.603 -10.022,0 -17.625,-7.343 -17.625,-17.683 0,-10.393 7.37,-17.593 17.561,-17.593 10.075,0 17.7,7.444 17.7,17.673 m -6.13,-0.08 c 0,-7.063 -4.741,-12.111 -11.506,-12.111 -6.692,0 -11.475,5.048 -11.475,12.111 0,7.095 4.656,12.217 11.475,12.217 6.713,0 11.506,-5.175 11.506,-12.217 m -47.245,8.579 c 0,2.598 1.867,4.211 4.73,4.211 3.33,0 4.921,-2.196 5.122,-5.621 l 5.599,0 c -0.042,6.172 -3.425,10.329 -10.593,10.329 -6.247,0 -10.701,-3.616 -10.701,-9.311 0,-4.099 1.707,-7.185 6.172,-9.056 2.238,-0.955 4.094,-1.305 6.066,-1.994 2.556,-0.902 3.956,-2.174 3.956,-4.996 0,-3.048 -2.492,-4.697 -5.493,-4.617 -4.338,0 -5.621,2.847 -5.674,6.166 l -5.854,0 c -0.148,-5.87 2.789,-11.093 11.4,-11.093 6.331,0 11.549,3.426 11.549,10.138 0,5.473 -2.672,8.177 -7.413,9.836 -1.824,0.621 -3.627,1.003 -5.409,1.639 -2.301,0.827 -3.457,2.184 -3.457,4.369 m -10.7,2.429 1.654,0 0,6.172 c -4.136,0.079 -6.373,-1.49 -7.603,-3.383 l 0,3.33 -6.056,0 0,-34.174 6.056,0 0,21.459 c 0,4.167 1.792,6.596 5.949,6.596 m -17.106,-12.8 c 0.138,1.034 0.138,2.126 0.138,2.757 -0.138,10.266 -6.724,16.718 -16.724,16.718 -9.746,0 -16.639,-7.401 -16.639,-17.747 0,-10.636 7.021,-17.529 17.286,-17.529 8.038,0 13.055,4.538 15.314,9.734 l -4.667,2.44 c -2.163,-4.009 -5.217,-6.761 -10.647,-6.761 -6.448,0 -10.605,3.945 -11.039,10.388 l 26.978,0 z m -6.182,4.931 -20.627,0 c 0.774,5.753 4.603,9.327 10.17,9.327 5.928,0 10.053,-3.712 10.457,-9.327 m -30.744,-3.059 c 0,10.461 -7.02,17.603 -17.159,17.603 -6.002,0 -9.958,-2.805 -11.994,-5.466 l 0,4.91 -5.811,0 0,-45.315 6.034,0 0,15.367 c 1.622,-1.92 5.578,-4.772 11.506,-4.772 10.669,0 17.424,7.73 17.424,17.673 m -6.13,-0.08 c 0,-7.142 -4.592,-12.18 -11.474,-12.18 -6.84,0 -11.549,5.038 -11.549,12.18 0,7.095 4.645,12.28 11.549,12.28 6.798,0 11.474,-5.185 11.474,-12.28 m -56.916,-17.047 5.355,0 0,22.037 c 0,7.524 -3.372,12.508 -11.983,12.508 -7.657,0 -11.379,-4.338 -11.432,-10.329 l 5.684,0 c 0.053,2.789 1.538,5.419 5.679,5.419 4.035,0 6.06,-2.503 6.06,-6.904 l 0,-2.853 c -1.156,1.061 -3.631,2.27 -7.084,2.27 -6.829,0 -11.559,-4.698 -11.559,-11.21 0,-7.03 5.064,-11.432 11.559,-11.432 3.643,0 6.125,1.336 7.721,3.203 l 0,-2.709 z m -0.504,10.938 c 0,-3.642 -2.826,-6.447 -6.506,-6.447 -3.775,0 -6.395,2.805 -6.395,6.447 0,3.633 2.493,6.374 6.342,6.374 3.733,0 6.559,-2.694 6.559,-6.374 m -30.102,-10.938 5.727,0 0,46.666 -6.055,0 0,-16.829 c -2.196,2.608 -6.183,4.893 -11.634,4.893 -10.064,0 -17.276,-7.646 -17.276,-17.683 0,-10.457 7.127,-17.593 17.414,-17.593 5.811,0 10.032,2.985 11.824,5.61 l 0,-5.064 z m -0.079,17.047 c 0,-7.063 -4.725,-12.18 -11.533,-12.18 -6.702,0 -11.506,5.117 -11.506,12.18 0,7.095 4.729,12.28 11.506,12.28 6.766,0 11.533,-5.185 11.533,-12.28 m -39.88,-17.047 5.371,0 0,22.037 c 0,7.524 -3.388,12.508 -11.999,12.508 -7.678,0 -11.358,-4.338 -11.432,-10.329 l 5.684,0 c 0.053,2.789 1.533,5.419 5.695,5.419 4.008,0 6.044,-2.503 6.044,-6.904 l 0,-2.853 c -1.134,1.061 -3.642,2.27 -7.084,2.27 -6.829,0 -11.554,-4.698 -11.554,-11.21 0,-7.03 5.054,-11.432 11.554,-11.432 3.633,0 6.13,1.336 7.721,3.203 l 0,-2.709 z m -0.499,10.938 c 0,-3.642 -2.81,-6.447 -6.532,-6.447 -3.754,0 -6.384,2.805 -6.384,6.447 0,3.633 2.508,6.374 6.342,6.374 3.764,0 6.574,-2.694 6.574,-6.374 m -46.666,6.109 c 0,6.967 4.533,12.217 11.299,12.217 4.274,0 7.095,-1.935 8.866,-3.85 l 3.791,3.85 c -1.935,2.396 -6.007,5.466 -12.715,5.466 -10.016,0 -17.424,-7.646 -17.424,-17.683 0,-10.085 6.962,-17.593 17.482,-17.593 6.517,0 10.605,3.17 12.657,5.61 l -3.59,3.748 c -1.728,-1.628 -4.475,-3.876 -9.014,-3.876 -6.363,0 -11.352,4.846 -11.352,12.111"
             style="fill:#ffffff;fill-opacity:1;fill-rule:nonzero;stroke:none"
             id="path28" /></g></g></g></g></svg>