<?xml version="1.0" encoding="UTF-8" standalone="no"?>
<!-- Generator: Adobe Illustrator 18.0.0, SVG Export Plug-In . SVG Version: 6.00 Build 0)  -->

<svg
   xmlns:dc="http://purl.org/dc/elements/1.1/"
   xmlns:cc="http://creativecommons.org/ns#"
   xmlns:rdf="http://www.w3.org/1999/02/22-rdf-syntax-ns#"
   xmlns:svg="http://www.w3.org/2000/svg"
   xmlns="http://www.w3.org/2000/svg"
   xmlns:sodipodi="http://sodipodi.sourceforge.net/DTD/sodipodi-0.dtd"
   xmlns:inkscape="http://www.inkscape.org/namespaces/inkscape"
   version="1.1"
   id="Layer_1"
   x="0px"
   y="0px"
   width="1416.2px"
   height="500.2px"
   viewBox="40.3 -0.1 1416.2 500.2"
   enable-background="new 40.3 -0.1 1416.2 500.2"
   xml:space="preserve"
   inkscape:version="0.48.4 r9939"
   sodipodi:docname="gdg-logo.svg"><metadata
     id="metadata35"><rdf:RDF><cc:Work
         rdf:about=""><dc:format>image/svg+xml</dc:format><dc:type
           rdf:resource="http://purl.org/dc/dcmitype/StillImage" /></cc:Work></rdf:RDF></metadata><defs
     id="defs33" /><sodipodi:namedview
     pagecolor="#ffffff"
     bordercolor="#666666"
     borderopacity="1"
     objecttolerance="10"
     gridtolerance="10"
     guidetolerance="10"
     inkscape:pageopacity="0"
     inkscape:pageshadow="2"
     inkscape:window-width="1301"
     inkscape:window-height="744"
     id="namedview31"
     showgrid="false"
     inkscape:zoom="0.44626467"
     inkscape:cx="934.68763"
     inkscape:cy="349.4262"
     inkscape:window-x="65"
     inkscape:window-y="24"
     inkscape:window-maximized="1"
     inkscape:current-layer="g21" /><g
     id="g3"><path
       fill="#757575"
       d="M304.2,316.1L106.7,0H52.2c-10.9,0-15.1,7.6-9.4,16.8l132.6,216.4l0.7,1.1l89.8,143.8L304.2,316.1z"
       id="path5" /><path
       fill="#757575"
       d="M334.7,266.8c5.7-9.2,5.7-24.3,0-33.6l-134-216.5C195,7.5,181.4-0.1,170.6-0.1h-55l193,308.9L334.7,266.8z"
       id="path7" /><path
       fill="#757575"
       d="M222.5,323L111.9,500h58.8c10.8,0,24.4-7.5,30.1-16.8l53.5-86.5c0.2-0.3,0.6-1,1.5-2.4l5.6-9.1L222.5,323z"
       id="path9" /><path
       fill="#757575"
       d="M175.4,266.8L42.8,483.3c-5.7,9.3-1.4,16.8,9.4,16.8h50.7L218,315.9L179.4,254   C178.9,258.8,177.6,263.3,175.4,266.8z"
       id="path11" /></g><g
     enable-background="new    "
     id="g13"><path
       fill="#757575"
       d="M509,241.7h77.1V338c-20.9,7.2-44,10.8-69.1,10.8c-27.5,0-48.8-8-63.9-24c-15-16-22.6-38.7-22.6-68.3   c0-28.8,8.2-51.3,24.7-67.4s39.5-24.1,69.2-24.1c11.2,0,21.9,1.1,31.8,3.2c10,2.1,18.7,4.8,26.1,8.1L567,214.2   c-12.9-6.4-27-9.5-42.4-9.5c-14.1,0-25,4.6-32.7,13.8s-11.6,22.3-11.6,39.3c0,16.7,3.5,29.4,10.5,38.2c7,8.8,17,13.1,30.1,13.1   c7.2,0,13.8-0.7,19.8-2.1v-28H509V241.7z"
       id="path15" /><path
       fill="#757575"
       d="M759.4,253.2c0,29.8-8.2,52.8-24.6,68.9c-16.4,16.1-39.5,24.2-69.2,24.2h-57.8V167.6h61.8   c28.7,0,50.8,7.3,66.4,22C751.6,204.3,759.4,225.5,759.4,253.2z M709.3,254.9c0-16.4-3.2-28.5-9.7-36.4s-16.3-11.9-29.5-11.9H656   v100.1h10.8c14.7,0,25.4-4.3,32.3-12.8C705.9,285.4,709.3,272.4,709.3,254.9z"
       id="path17" /><path
       fill="#757575"
       d="M848.5,241.7h77.1V338c-20.9,7.2-44,10.8-69.1,10.8c-27.5,0-48.8-8-63.9-24c-15-16-22.6-38.7-22.6-68.3   c0-28.8,8.2-51.3,24.7-67.4s39.5-24.1,69.2-24.1c11.2,0,21.9,1.1,31.8,3.2c10,2.1,18.7,4.8,26.1,8.1l-15.3,37.9   c-12.9-6.4-27-9.5-42.4-9.5c-14.1,0-25,4.6-32.7,13.8s-11.6,22.3-11.6,39.3c0,16.7,3.5,29.4,10.5,38.2c7,8.8,17,13.1,30.1,13.1   c7.2,0,13.8-0.7,19.8-2.1v-28h-31.9v-37.3H848.5z"
       id="path19" /></g><g
     enable-background="new    "
     id="g21"><g
       transform="matrix(3.8226936,0,0,3.8226936,311.16533,-692.10622)"
       style="font-size:40px;font-style:normal;font-variant:normal;font-weight:normal;font-stretch:normal;text-align:start;line-height:125%;letter-spacing:0px;word-spacing:0px;writing-mode:lr-tb;text-anchor:start;fill:#757575;fill-opacity:1;stroke:#757575;stroke-width:2.35436082;stroke-miterlimit:4;stroke-opacity:1;font-family:Nimbus Sans L;-inkscape-font-specification:Nimbus Sans L"
       id="flowRoot3072-4"><path
         d="m 200.25149,270.10038 -26.60773,0 0,-3.95932 10.6597,-10.71509 c 3.24866,-3.28557 5.38983,-5.62978 6.42351,-7.03263 1.03365,-1.40282 1.8089,-2.76873 2.32576,-4.09776 0.51681,-1.32898 0.77523,-2.7595 0.77525,-4.29157 -2e-5,-2.1596 -0.65529,-3.867 -1.96582,-5.1222 -1.31056,-1.27359 -3.12871,-1.9104 -5.45444,-1.91044 -1.67973,4e-5 -3.27638,0.27691 -4.78995,0.83063 -1.49514,0.55378 -3.16562,1.55976 -5.01145,3.01794 l -2.4365,-3.12869 c 3.72858,-3.10097 7.78942,-4.65147 12.18252,-4.65151 3.80241,4e-5 6.78343,0.97833 8.94308,2.93488 2.1596,1.93816 3.23942,4.55002 3.23944,7.83558 -2e-5,2.56574 -0.7199,5.10376 -2.15963,7.61407 -1.43977,2.51036 -4.13469,5.6852 -8.08476,9.52452 l -8.86002,8.6662 0,0.2215 20.82104,0 0,4.26389"
         style="font-size:56.70410538px;fill:#757575;stroke:#757575;font-family:Open Sans;-inkscape-font-specification:Open Sans"
         id="path2996" /><path
         d="m 232.9228,249.8054 c -3e-5,6.99574 -1.10753,12.21945 -3.3225,15.67116 -2.19657,3.45171 -5.56522,5.17757 -10.10596,5.17757 -4.35619,0 -7.66946,-1.76277 -9.93983,-5.28832 -2.27038,-3.544 -3.40557,-8.7308 -3.40557,-15.56041 0,-7.05107 1.09827,-12.28401 3.29482,-15.69884 2.19654,-3.41476 5.54673,-5.12216 10.05058,-5.1222 4.39307,4e-5 7.7248,1.78128 9.99521,5.3437 2.28881,3.5625 3.43322,8.72161 3.43325,15.47734 m -22.12235,0 c -1e-5,5.88824 0.69218,10.1798 2.07657,12.87471 1.38436,2.67647 3.59013,4.0147 6.61732,4.0147 3.06407,0 5.27907,-1.35669 6.64501,-4.07007 1.38436,-2.73183 2.07654,-7.00494 2.07657,-12.81934 -3e-5,-5.81436 -0.69221,-10.06901 -2.07657,-12.76396 -1.36594,-2.71334 -3.58094,-4.07003 -6.64501,-4.07007 -3.02719,4e-5 -5.23296,1.33827 -6.61732,4.0147 -1.38439,2.65803 -2.07658,6.93114 -2.07657,12.81933"
         style="font-size:56.70410538px;fill:#757575;stroke:#757575;font-family:Open Sans;-inkscape-font-specification:Open Sans"
         id="path2998" /><path
         d="m 255.57122,270.10038 -4.48538,0 0,-28.85043 c -2e-5,-2.39956 0.0738,-4.66993 0.2215,-6.81114 -0.38764,0.38766 -0.82142,0.79375 -1.30132,1.21825 -0.47993,0.42458 -2.67647,2.22427 -6.58964,5.39908 l -2.4365,-3.15639 10.71508,-8.27857 3.87626,0 0,40.4792"
         style="font-size:56.70410538px;fill:#757575;stroke:#757575;font-family:Open Sans;-inkscape-font-specification:Open Sans"
         id="path3000" /><path
         d="m 283.64639,245.37539 c 4.26387,3e-5 7.61406,1.06138 10.05058,3.18407 2.45494,2.10428 3.68242,4.99301 3.68245,8.66621 -3e-5,4.19005 -1.33826,7.47564 -4.0147,9.85676 -2.65802,2.38113 -6.33124,3.5717 -11.01964,3.5717 -4.55923,0 -8.03863,-0.72911 -10.43821,-2.18732 l 0,-4.43001 c 1.29208,0.83064 2.89796,1.48591 4.81763,1.96582 1.91966,0.46146 3.81165,0.69219 5.67595,0.69219 3.24866,0 5.76822,-0.76602 7.5587,-2.29807 1.8089,-1.53204 2.71336,-3.74704 2.71338,-6.64501 -2e-5,-5.64824 -3.46096,-8.47237 -10.38283,-8.47239 -1.75355,2e-5 -4.09777,0.26767 -7.03264,0.80294 l -2.38113,-1.52282 1.52282,-18.93828 20.12885,0 0,4.23619 -16.19722,0 -1.02444,12.15484 c 2.1227,-0.42452 4.23619,-0.63679 6.34045,-0.63682"
         style="font-size:56.70410538px;fill:#757575;stroke:#757575;font-family:Open Sans;-inkscape-font-specification:Open Sans"
         id="path3002" /></g></g></svg>