<?xml version="1.0" encoding="UTF-8" standalone="no"?>
<!-- Generator: Adobe Illustrator 19.0.0, SVG Export Plug-In . SVG Version: 6.00 Build 0)  -->

<svg
   xmlns:dc="http://purl.org/dc/elements/1.1/"
   xmlns:cc="http://creativecommons.org/ns#"
   xmlns:rdf="http://www.w3.org/1999/02/22-rdf-syntax-ns#"
   xmlns:svg="http://www.w3.org/2000/svg"
   xmlns="http://www.w3.org/2000/svg"
   xmlns:sodipodi="http://sodipodi.sourceforge.net/DTD/sodipodi-0.dtd"
   xmlns:inkscape="http://www.inkscape.org/namespaces/inkscape"
   version="1.1"
   id="dark"
   sodipodi:docname="logo-light.svg"
   inkscape:version="0.48.4 r9939"
   x="0px"
   y="0px"
   viewBox="95.2 1678.4 610.1 200"
   style="enable-background:new 95.2 1678.4 610.1 200;"
   xml:space="preserve"
   width="100%"
   height="100%"><metadata
     id="metadata97"><rdf:RDF><cc:Work
         rdf:about=""><dc:format>image/svg+xml</dc:format><dc:type
           rdf:resource="http://purl.org/dc/dcmitype/StillImage" /></cc:Work></rdf:RDF></metadata><defs
     id="defs95" /><sodipodi:namedview
     pagecolor="#ffffff"
     bordercolor="#666666"
     borderopacity="1"
     objecttolerance="10"
     gridtolerance="10"
     guidetolerance="10"
     inkscape:pageopacity="0"
     inkscape:pageshadow="2"
     inkscape:window-width="1301"
     inkscape:window-height="744"
     id="namedview93"
     showgrid="false"
     inkscape:zoom="2.0717915"
     inkscape:cx="418.5429"
     inkscape:cy="40.394621"
     inkscape:window-x="65"
     inkscape:window-y="24"
     inkscape:window-maximized="1"
     inkscape:current-layer="dark" /><style
     type="text/css"
     id="style3">
	.st0{fill:#F6C25B;}
	.st1{fill:#0A985C;}
	.st2{fill:#5586C5;}
	.st3{fill:#D9423E;}
	.st4{fill:#E6E6E5;}
	.st5{fill:#168B58;}
	.st6{fill:#D7AB56;}
</style><g
     id="g5"><g
       id="g7"><path
         class="st0"
         d="M122.1,1878.4h22.6c5.4,0,12-3.8,14.8-8.4l19.1-31.7c2.3-4.7,2.2-11.4-0.4-15.7l-11.3-18.6L122.1,1878.4z"
         id="path9" /><path
         class="st1"
         d="M146.4,1786.8L96.1,1871c-1.9,4.1,0.1,7.5,5.1,7.5h20.9l44.8-74.4l-20.5-33.9    C149.2,1774.6,149.2,1782.2,146.4,1786.8"
         id="path11" /><path
         class="st2"
         d="M101.1,1678.4c-5.4,0-7.5,3.8-4.7,8.4l81.8,135.8c2.6,4.3,2.6,11.1,0.4,15.7l19.9-33.1l-76.3-126.8    L101.1,1678.4L101.1,1678.4z"
         id="path13" /><path
         class="st3"
         d="M122.1,1678.4l76.3,126.8l11.1-18.4c2.8-4.6,2.8-12.1,0-16.7l-50-83.3c-2.8-4.6-9.4-8.4-14.8-8.4H122.1    L122.1,1678.4z"
         id="path15" /></g><g
       id="g17"><g
         id="g19"><g
           id="g21" /><g
           id="g45"><g
             id="g47"><path
               class="st4"
               d="M479.4,1738.4c0,8.9-2.4,15.8-7.3,20.6c-4.9,4.8-11.7,7.2-20.6,7.2h-17.2v-53.4h18.4       c8.5,0,15.1,2.2,19.7,6.6C477.1,1723.8,479.4,1730.2,479.4,1738.4z M464.5,1739c0-4.9-1-8.5-2.9-10.9c-1.9-2.4-4.8-3.5-8.8-3.5       h-4.2v29.9h3.2c4.4,0,7.6-1.3,9.6-3.8C463.5,1748.1,464.5,1744.2,464.5,1739z"
               id="path49" /></g><g
             id="g51"><path
               class="st4"
               d="M503.5,1767c-6.9,0-12.2-1.8-16-5.5c-3.8-3.7-5.7-8.9-5.7-15.7c0-7,1.8-12.4,5.3-16.1       c3.5-3.7,8.5-5.6,15-5.6c6.2,0,11,1.6,14.4,4.9c3.4,3.3,5.1,7.9,5.1,14.1v6.4h-25.4c0.1,2.3,0.9,4.1,2.5,5.4       c1.6,1.3,3.7,2,6.5,2c2.5,0,4.8-0.2,6.9-0.7c2.1-0.5,4.4-1.3,6.8-2.4v10.3c-2.2,1.2-4.5,1.9-6.9,2.4       C509.6,1766.8,506.8,1767,503.5,1767z M502.7,1733.9c-1.7,0-3.1,0.5-4.2,1.6c-1.1,1.1-1.8,2.7-2,5h12.2c-0.1-2-0.6-3.6-1.7-4.8       C505.9,1734.5,504.5,1733.9,502.7,1733.9z"
               id="path53" /></g><g
             id="g55"><path
               class="st4"
               d="M535.9,1766.3l-15.7-41.4H535l7,24.5c0,0.1,0.1,0.3,0.2,0.6c0.1,0.3,0.1,0.6,0.2,1       c0.1,0.4,0.1,0.8,0.2,1.3c0.1,0.5,0.1,0.9,0.1,1.3h0.2c0-1.3,0.2-2.6,0.7-4.1l7.3-24.6h14.8l-15.7,41.4H535.9z"
               id="path57" /></g><g
             id="g59"><path
               class="st4"
               d="M581,1766.3h-14.1v-53.4h31.4v11.6H581v10.2h15.9v11.6H581L581,1766.3L581,1766.3z"
               id="path61" /></g><g
             id="g63"><path
               class="st4"
               d="M621.5,1767c-6.8,0-12.1-1.8-16-5.5c-3.8-3.7-5.7-8.9-5.7-15.7c0-7,1.8-12.4,5.3-16.1       c3.5-3.7,8.5-5.6,15-5.6c6.2,0,11,1.6,14.4,4.9c3.4,3.3,5.1,7.9,5.1,14.1v6.4h-25.4c0.1,2.3,0.9,4.1,2.5,5.4       c1.6,1.3,3.7,2,6.5,2c2.5,0,4.8-0.2,6.9-0.7c2.1-0.5,4.3-1.3,6.8-2.4v10.3c-2.2,1.2-4.5,1.9-6.9,2.4       C627.6,1766.8,624.8,1767,621.5,1767z M620.7,1733.9c-1.7,0-3.1,0.5-4.2,1.6c-1.1,1.1-1.8,2.7-2,5h12.2c-0.1-2-0.6-3.6-1.7-4.8       C623.9,1734.5,622.5,1733.9,620.7,1733.9z"
               id="path65" /></g><g
             id="g67"><path
               class="st4"
               d="M674.9,1753.6c0,4.4-1.5,7.8-4.5,10.1c-3,2.3-7.3,3.4-12.9,3.4c-3,0-5.7-0.2-7.9-0.5       c-2.3-0.3-4.5-0.9-6.9-1.8v-11.4c2.2,1,4.6,1.8,7.2,2.4c2.6,0.6,5,0.9,7,0.9c3.1,0,4.6-0.7,4.6-2.1c0-0.7-0.4-1.4-1.3-2       c-0.9-0.6-3.4-1.7-7.5-3.3c-3.8-1.6-6.4-3.3-7.9-5.3c-1.5-2-2.3-4.5-2.3-7.5c0-3.8,1.5-6.8,4.4-9c2.9-2.2,7.1-3.2,12.5-3.2       c2.7,0,5.3,0.3,7.6,0.9c2.4,0.6,4.8,1.5,7.4,2.6l-3.8,9.2c-1.9-0.8-3.9-1.6-6-2.2c-2.1-0.6-3.8-0.9-5.1-0.9       c-2.3,0-3.5,0.6-3.5,1.7c0,0.7,0.4,1.3,1.2,1.8c0.8,0.5,3.2,1.5,7,3.1c2.9,1.2,5,2.4,6.4,3.5c1.4,1.1,2.5,2.5,3.1,4       C674.5,1749.5,674.9,1751.4,674.9,1753.6z"
               id="path69" /></g><g
             id="g71"><path
               class="st4"
               d="M698.4,1755.7c1.9,0,4.2-0.5,6.9-1.4v10.4c-1.9,0.8-3.7,1.4-5.5,1.8c-1.7,0.4-3.8,0.5-6.1,0.5       c-4.8,0-8.2-1.2-10.3-3.5c-2.1-2.4-3.2-6-3.2-10.8v-17.1h-5v-5.8l6.3-4.5l3.7-8.7h9.3v8.3h10.1v10.7h-10.1v16.1       C694.6,1754.4,695.9,1755.7,698.4,1755.7z"
               id="path73" /></g></g><g
           id="g75"><g
             id="g77"><path
               class="st4"
               d="M278.3,1736.3h23.1v28.8c-6.3,2.1-13.2,3.2-20.7,3.2c-8.2,0-14.6-2.4-19.1-7.2c-4.5-4.8-6.7-11.6-6.7-20.4       c0-8.6,2.5-15.3,7.4-20.1c4.9-4.8,11.8-7.2,20.7-7.2c3.4,0,6.5,0.3,9.5,1c3,0.6,5.6,1.4,7.8,2.4l-4.6,11.3       c-3.8-1.9-8.1-2.8-12.7-2.8c-4.2,0-7.5,1.4-9.8,4.1c-2.3,2.7-3.5,6.7-3.5,11.8c0,5,1,8.8,3.1,11.4c2.1,2.6,5.1,3.9,9,3.9       c2.1,0,4.1-0.2,5.9-0.6v-8.4h-9.5L278.3,1736.3L278.3,1736.3L278.3,1736.3z"
               id="path79" /></g><g
             id="g81"><path
               class="st4"
               d="M353.1,1739.7c0,8.9-2.5,15.8-7.4,20.6c-4.9,4.8-11.8,7.2-20.7,7.2h-17.3v-53.5h18.5       c8.6,0,15.2,2.2,19.9,6.6C350.8,1725.1,353.1,1731.4,353.1,1739.7z M338.1,1740.2c0-4.9-1-8.5-2.9-10.9       c-1.9-2.4-4.9-3.6-8.8-3.6h-4.2v29.9h3.2c4.4,0,7.6-1.3,9.7-3.8C337.1,1749.4,338.1,1745.5,338.1,1740.2z"
               id="path83" /></g><g
             id="g85"><path
               class="st4"
               d="M379.7,1736.3h23.1v28.8c-6.3,2.1-13.1,3.2-20.7,3.2c-8.2,0-14.6-2.4-19.1-7.2c-4.5-4.8-6.7-11.6-6.7-20.4       c0-8.6,2.5-15.3,7.4-20.1c4.9-4.8,11.8-7.2,20.7-7.2c3.4,0,6.5,0.3,9.5,1c3,0.6,5.6,1.4,7.8,2.4l-4.6,11.3       c-3.9-1.9-8.1-2.8-12.7-2.8c-4.2,0-7.5,1.4-9.8,4.1c-2.3,2.7-3.5,6.7-3.5,11.8c0,5,1,8.8,3.1,11.4c2.1,2.6,5.1,3.9,9,3.9       c2.1,0,4.1-0.2,5.9-0.6v-8.4h-9.5L379.7,1736.3L379.7,1736.3z"
               id="path87" /></g></g><g
           transform="matrix(1.1639369,0,0,1.1639369,58.923091,1522.058)"
           style="font-size:40px;font-style:normal;font-variant:normal;font-weight:normal;font-stretch:normal;text-align:start;line-height:125%;letter-spacing:0px;word-spacing:0px;writing-mode:lr-tb;text-anchor:start;fill:#e6e6e5;fill-opacity:1;stroke:#e6e6e5;stroke-opacity:1;font-family:Nimbus Sans L;-inkscape-font-specification:Nimbus Sans L"
           id="flowRoot3072-4"><path
             d="m 200.25149,270.10038 -26.60773,0 0,-3.95932 10.6597,-10.71509 c 3.24866,-3.28557 5.38983,-5.62978 6.42351,-7.03263 1.03365,-1.40282 1.8089,-2.76873 2.32576,-4.09776 0.51681,-1.32898 0.77523,-2.7595 0.77525,-4.29157 -2e-5,-2.1596 -0.65529,-3.867 -1.96582,-5.1222 -1.31056,-1.27359 -3.12871,-1.9104 -5.45444,-1.91044 -1.67973,4e-5 -3.27638,0.27691 -4.78995,0.83063 -1.49514,0.55378 -3.16562,1.55976 -5.01145,3.01794 l -2.4365,-3.12869 c 3.72858,-3.10097 7.78942,-4.65147 12.18252,-4.65151 3.80241,4e-5 6.78343,0.97833 8.94308,2.93488 2.1596,1.93816 3.23942,4.55002 3.23944,7.83558 -2e-5,2.56574 -0.7199,5.10376 -2.15963,7.61407 -1.43977,2.51036 -4.13469,5.6852 -8.08476,9.52452 l -8.86002,8.6662 0,0.2215 20.82104,0 0,4.26389"
             style="font-size:56.70410538px;fill:#e6e6e5;stroke:#e6e6e5;font-family:Open Sans;-inkscape-font-specification:Open Sans"
             id="path3021" /><path
             d="m 232.9228,249.8054 c -3e-5,6.99574 -1.10753,12.21945 -3.3225,15.67116 -2.19657,3.45171 -5.56522,5.17757 -10.10596,5.17757 -4.35619,0 -7.66946,-1.76277 -9.93983,-5.28832 -2.27038,-3.544 -3.40557,-8.7308 -3.40557,-15.56041 0,-7.05107 1.09827,-12.28401 3.29482,-15.69884 2.19654,-3.41476 5.54673,-5.12216 10.05058,-5.1222 4.39307,4e-5 7.7248,1.78128 9.99521,5.3437 2.28881,3.5625 3.43322,8.72161 3.43325,15.47734 m -22.12235,0 c -1e-5,5.88824 0.69218,10.1798 2.07657,12.87471 1.38436,2.67647 3.59013,4.0147 6.61732,4.0147 3.06407,0 5.27907,-1.35669 6.64501,-4.07007 1.38436,-2.73183 2.07654,-7.00494 2.07657,-12.81934 -3e-5,-5.81436 -0.69221,-10.06901 -2.07657,-12.76396 -1.36594,-2.71334 -3.58094,-4.07003 -6.64501,-4.07007 -3.02719,4e-5 -5.23296,1.33827 -6.61732,4.0147 -1.38439,2.65803 -2.07658,6.93114 -2.07657,12.81933"
             style="font-size:56.70410538px;fill:#e6e6e5;stroke:#e6e6e5;font-family:Open Sans;-inkscape-font-specification:Open Sans"
             id="path3023" /><path
             d="m 255.57122,270.10038 -4.48538,0 0,-28.85043 c -2e-5,-2.39956 0.0738,-4.66993 0.2215,-6.81114 -0.38764,0.38766 -0.82142,0.79375 -1.30132,1.21825 -0.47993,0.42458 -2.67647,2.22427 -6.58964,5.39908 l -2.4365,-3.15639 10.71508,-8.27857 3.87626,0 0,40.4792"
             style="font-size:56.70410538px;fill:#e6e6e5;stroke:#e6e6e5;font-family:Open Sans;-inkscape-font-specification:Open Sans"
             id="path3025" /><path
             d="m 283.64639,245.37539 c 4.26387,3e-5 7.61406,1.06138 10.05058,3.18407 2.45494,2.10428 3.68242,4.99301 3.68245,8.66621 -3e-5,4.19005 -1.33826,7.47564 -4.0147,9.85676 -2.65802,2.38113 -6.33124,3.5717 -11.01964,3.5717 -4.55923,0 -8.03863,-0.72911 -10.43821,-2.18732 l 0,-4.43001 c 1.29208,0.83064 2.89796,1.48591 4.81763,1.96582 1.91966,0.46146 3.81165,0.69219 5.67595,0.69219 3.24866,0 5.76822,-0.76602 7.5587,-2.29807 1.8089,-1.53204 2.71336,-3.74704 2.71338,-6.64501 -2e-5,-5.64824 -3.46096,-8.47237 -10.38283,-8.47239 -1.75355,2e-5 -4.09777,0.26767 -7.03264,0.80294 l -2.38113,-1.52282 1.52282,-18.93828 20.12885,0 0,4.23619 -16.19722,0 -1.02444,12.15484 c 2.1227,-0.42452 4.23619,-0.63679 6.34045,-0.63682"
             style="font-size:56.70410538px;fill:#e6e6e5;stroke:#e6e6e5;font-family:Open Sans;-inkscape-font-specification:Open Sans"
             id="path3027" /><path
             d="m 346.41408,270.10038 -5.03913,-12.87471 -16.22491,0 -4.98376,12.87471 -4.76226,0 16.00341,-40.64533 3.95932,0 15.92034,40.64533 -4.87301,0 m -6.50657,-17.11091 -4.70689,-12.54246 c -0.60914,-1.58739 -1.23673,-3.53474 -1.88275,-5.84207 -0.4061,1.77203 -0.98754,3.71939 -1.74432,5.84207 l -4.76226,12.54246 13.09622,0"
             style="fill:#e6e6e5;stroke:#e6e6e5"
             id="path3029" /><path
             d="m 375.73519,261.8218 c -3e-5,2.82414 -1.05215,5.00222 -3.15638,6.53426 -2.10428,1.53205 -5.05761,2.29807 -8.86002,2.29807 -4.02393,0 -7.16185,-0.63682 -9.41377,-1.91044 l 0,-4.26389 c 1.45821,0.73834 3.01794,1.31978 4.6792,1.74432 1.6797,0.42455 3.29481,0.63682 4.84532,0.63681 2.39957,1e-5 4.24541,-0.37839 5.53751,-1.13519 1.29207,-0.77524 1.93811,-1.94735 1.93813,-3.51631 -2e-5,-1.18133 -0.51686,-2.18731 -1.5505,-3.01795 -1.01523,-0.84907 -3.00873,-1.84582 -5.98052,-2.99025 -2.82414,-1.05212 -4.8361,-1.9658 -6.03588,-2.74107 -1.18134,-0.79369 -2.06734,-1.68892 -2.65801,-2.68569 -0.57221,-0.99674 -0.85831,-2.1873 -0.85831,-3.5717 0,-2.47339 1.00598,-4.42075 3.01794,-5.84207 2.01196,-1.43972 4.77148,-2.1596 8.27858,-2.15963 3.26711,3e-5 6.46041,0.66453 9.57989,1.9935 l -1.63356,3.73782 c -3.04565,-1.25514 -5.80518,-1.88272 -8.27858,-1.88275 -2.1781,3e-5 -3.82089,0.34151 -4.92838,1.02444 -1.10751,0.68298 -1.66126,1.62436 -1.66126,2.82413 0,0.81219 0.20304,1.50438 0.60913,2.07657 0.42453,0.57223 1.09826,1.11675 2.02119,1.63356 0.92291,0.51685 2.69491,1.26442 5.31601,2.24269 3.59936,1.31056 6.02664,2.63033 7.28183,3.95932 1.2736,1.32902 1.91041,2.9995 1.91044,5.01145"
             style="fill:#e6e6e5;stroke:#e6e6e5"
             id="path3031" /><path
             d="m 387.5024,239.75482 0,19.68585 c -1e-5,2.47343 0.56297,4.31926 1.68894,5.53751 1.12595,1.21826 2.88872,1.82738 5.28832,1.82738 3.17482,0 5.49135,-0.86754 6.94958,-2.60263 1.47665,-1.73508 2.21498,-4.56844 2.215,-8.50008 l 0,-15.94803 4.59614,0 0,30.34556 -3.7932,0 -0.6645,-4.07007 -0.24919,0 c -0.9414,1.49513 -2.25194,2.63955 -3.93163,3.43325 -1.66127,0.79371 -3.56248,1.19057 -5.70363,1.19057 -3.69169,0 -6.46044,-0.87677 -8.30627,-2.63032 -1.82738,-1.75354 -2.74107,-4.55921 -2.74107,-8.41701 l 0,-19.85198 4.65151,0"
             style="fill:#e6e6e5;stroke:#e6e6e5"
             id="path3033" /><path
             d="m 438.72438,270.10038 0,-19.63048 c -2e-5,-2.4734 -0.563,-4.31923 -1.68894,-5.53751 -1.12598,-1.21822 -2.88875,-1.82735 -5.28832,-1.82738 -3.17486,3e-5 -5.50061,0.85834 -6.97726,2.57495 -1.47668,1.71665 -2.21502,4.55 -2.21501,8.50008 l 0,15.92034 -4.59613,0 0,-30.34556 3.73782,0 0.74756,4.15313 0.2215,0 c 0.94137,-1.4951 2.26114,-2.64874 3.95932,-3.46094 1.69816,-0.8306 3.59014,-1.24591 5.67595,-1.24594 3.65473,3e-5 6.40503,0.88603 8.25089,2.658 1.84581,1.75358 2.76872,4.56847 2.76875,8.44471 l 0,19.7966 -4.59613,0"
             style="fill:#e6e6e5;stroke:#e6e6e5"
             id="path3035" /><path
             d="m 464.86142,270.65413 c -4.3931,0 -7.79867,-1.34746 -10.2167,-4.04238 -2.39959,-2.71338 -3.59939,-6.54349 -3.59938,-11.49034 -1e-5,-5.07603 1.21824,-8.99843 3.65475,-11.76721 2.45496,-2.76872 5.94358,-4.1531 10.4659,-4.15313 1.45819,3e-5 2.9164,0.15693 4.37463,0.47069 1.45819,0.31382 2.60261,0.68299 3.43326,1.1075 l -1.41207,3.90394 c -1.01523,-0.40605 -2.12273,-0.7383 -3.32251,-0.99675 -1.19981,-0.27685 -2.26116,-0.41528 -3.18406,-0.41531 -6.16511,3e-5 -9.24765,3.93166 -9.24765,11.7949 0,3.7286 0.74756,6.58964 2.2427,8.58314 1.51357,1.99351 3.74703,2.99026 6.70038,2.99025 2.52878,10e-6 5.12218,-0.54451 7.78021,-1.63356 l 0,4.07007 c -2.03045,1.05212 -4.58693,1.57819 -7.66946,1.57819"
             style="fill:#e6e6e5;stroke:#e6e6e5"
             id="path3037" /><path
             d="m 484.35345,270.10038 -4.59613,0 0,-30.34556 4.59613,0 0,30.34556 m -4.98376,-38.56876 c 0,-1.05209 0.25841,-1.81811 0.77525,-2.29807 0.51683,-0.49833 1.16287,-0.74752 1.93813,-0.74756 0.73833,4e-5 1.37514,0.24923 1.91044,0.74756 0.53529,0.49842 0.80293,1.26444 0.80294,2.29807 -10e-6,1.0337 -0.26765,1.80895 -0.80294,2.32575 -0.5353,0.49841 -1.17211,0.7476 -1.91044,0.74757 -0.77526,3e-5 -1.4213,-0.24916 -1.93813,-0.74757 -0.51684,-0.5168 -0.77525,-1.29205 -0.77525,-2.32575"
             style="fill:#e6e6e5;stroke:#e6e6e5"
             id="path3039" /><path
             d="m 520.34729,254.89991 c -3e-5,4.94685 -1.24597,8.81388 -3.73782,11.60109 -2.4919,2.76875 -5.93438,4.15313 -10.32745,4.15313 -2.7134,0 -5.12221,-0.63682 -7.22645,-1.91044 -2.10427,-1.27363 -3.7286,-3.101 -4.87301,-5.48214 -1.14443,-2.38112 -1.71663,-5.16833 -1.71663,-8.36164 0,-4.94682 1.2367,-8.79539 3.71013,-11.54571 2.47341,-2.76872 5.90667,-4.1531 10.29977,-4.15313 4.2454,3e-5 7.61405,1.41209 10.10596,4.2362 2.5103,2.82415 3.76547,6.64503 3.7655,11.46264 m -23.1191,0 c -10e-6,3.87627 0.77524,6.82961 2.32575,8.86002 1.55049,2.03042 3.8301,3.04563 6.83883,3.04563 3.00869,0 5.2883,-1.00598 6.83882,-3.01794 1.56894,-2.03042 2.35342,-4.99298 2.35344,-8.88771 -2e-5,-3.85778 -0.7845,-6.78343 -2.35344,-8.77695 -1.55052,-2.01194 -3.84859,-3.01792 -6.8942,-3.01795 -3.00873,3e-5 -5.2791,0.98755 -6.81114,2.96257 -1.53205,1.97507 -2.29807,4.91918 -2.29806,8.83233 m 5.31601,-19.85197 c 0.88598,-1.14439 1.83659,-2.52876 2.85182,-4.15314 1.03365,-1.62429 1.84581,-3.03635 2.4365,-4.23619 l 5.59289,0 0,0.58144 c -0.8122,1.19983 -2.02122,2.6765 -3.62707,4.43001 -1.6059,1.75358 -2.99951,3.11027 -4.18082,4.07007 l -3.07332,0 0,-0.69219"
             style="fill:#e6e6e5;stroke:#e6e6e5"
             id="path3041" /><path
             d="m 549.14233,270.10038 0,-19.63048 c -2e-5,-2.4734 -0.563,-4.31923 -1.68894,-5.53751 -1.12598,-1.21822 -2.88875,-1.82735 -5.28832,-1.82738 -3.17485,3e-5 -5.5006,0.85834 -6.97726,2.57495 -1.47668,1.71665 -2.21501,4.55 -2.21501,8.50008 l 0,15.92034 -4.59613,0 0,-30.34556 3.73782,0 0.74756,4.15313 0.2215,0 c 0.94137,-1.4951 2.26114,-2.64874 3.95932,-3.46094 1.69816,-0.8306 3.59014,-1.24591 5.67595,-1.24594 3.65474,3e-5 6.40503,0.88603 8.25089,2.658 1.84581,1.75358 2.76873,4.56847 2.76876,8.44471 l 0,19.7966 -4.59614,0"
             style="fill:#e6e6e5;stroke:#e6e6e5"
             id="path3043" /></g></g></g></g><path
     class="st5"
     d="M146.4,1786.8l-12,20.1l21.5,15.3l11-18.2l-20.5-33.9C149.2,1774.6,149.2,1782.2,146.4,1786.8z"
     id="path89" /><path
     class="st6"
     d="M166.9,1804l-11,18.2l22.6,16.1c2.3-4.7,2.2-11.4-0.4-15.7L166.9,1804z"
     id="path91" /></svg>