<?xml version="1.0" encoding="UTF-8" standalone="no"?>
<!-- Generator: Adobe Illustrator 19.0.0, SVG Export Plug-In . SVG Version: 6.00 Build 0)  -->

<svg
   xmlns:dc="http://purl.org/dc/elements/1.1/"
   xmlns:cc="http://creativecommons.org/ns#"
   xmlns:rdf="http://www.w3.org/1999/02/22-rdf-syntax-ns#"
   xmlns:svg="http://www.w3.org/2000/svg"
   xmlns="http://www.w3.org/2000/svg"
   xmlns:sodipodi="http://sodipodi.sourceforge.net/DTD/sodipodi-0.dtd"
   xmlns:inkscape="http://www.inkscape.org/namespaces/inkscape"
   version="1.1"
   id="dark"
   inkscape:version="0.48.4 r9939"
   sodipodi:docname="logo.svg"
   x="0px"
   y="0px"
   viewBox="90.18 977.405 610.109 200"
   enable-background="new 90.18 977.405 610.109 200"
   xml:space="preserve"
   width="100%"
   height="100%"><metadata
     id="metadata95"><rdf:RDF><cc:Work
         rdf:about=""><dc:format>image/svg+xml</dc:format><dc:type
           rdf:resource="http://purl.org/dc/dcmitype/StillImage" /></cc:Work></rdf:RDF></metadata><defs
     id="defs93" /><sodipodi:namedview
     pagecolor="#ffffff"
     bordercolor="#666666"
     borderopacity="1"
     objecttolerance="10"
     gridtolerance="10"
     guidetolerance="10"
     inkscape:pageopacity="0"
     inkscape:pageshadow="2"
     inkscape:window-width="1301"
     inkscape:window-height="744"
     id="namedview91"
     showgrid="false"
     inkscape:zoom="1.0358805"
     inkscape:cx="340.64226"
     inkscape:cy="64.857046"
     inkscape:window-x="65"
     inkscape:window-y="24"
     inkscape:window-maximized="1"
     inkscape:current-layer="dark" /><g
     id="g3"><g
       id="g5"><path
         fill="#F6C25B"
         d="M117.073,1177.405h22.645c5.352,0,12.006-3.759,14.771-8.376l19.071-31.726    c2.255-4.651,2.173-11.427-0.397-15.712l-11.26-18.634L117.073,1177.405z"
         id="path7" /><path
         fill="#0A985C"
         d="M141.413,1085.779l-50.349,84.173c-1.944,4.148,0.079,7.453,5.069,7.453h20.94l44.829-74.448    l-20.488-33.916C144.175,1073.637,144.175,1081.172,141.413,1085.779"
         id="path9" /><path
         fill="#5586C5"
         d="M96.134,977.405c-5.38,0-7.502,3.779-4.747,8.366l81.776,135.821c2.57,4.285,2.646,11.061,0.397,15.705    l19.876-33.078l-76.349-126.813H96.134z"
         id="path11" /><path
         fill="#D9423E"
         d="M117.087,977.405l76.349,126.813l11.073-18.432c2.768-4.613,2.768-12.148,0-16.744l-50.017-83.271    c-2.769-4.586-9.423-8.366-14.774-8.366H117.087z"
         id="path13" /></g><g
       id="g15"><g
         id="g17"><g
           id="g43"><g
             id="g45"><path
               d="m 474.434,1037.446 c 0,8.922 -2.443,15.801 -7.314,20.62 -4.874,4.818 -11.729,7.241 -20.557,7.241 h -17.17 v -53.449 h 18.367 c 8.513,0 15.088,2.197 19.719,6.585 4.635,4.376 6.955,10.719 6.955,19.003 z m -14.884,0.515 c 0,-4.897 -0.96,-8.529 -2.884,-10.898 -1.914,-2.358 -4.839,-3.543 -8.763,-3.543 h -4.173 v 29.935 h 3.199 c 4.35,0 7.553,-1.275 9.586,-3.814 2.017,-2.552 3.035,-6.441 3.035,-11.68 z"
               id="path47"
               inkscape:connector-curvature="0"
               style="fill:#4e4e4e" /></g><g
             id="g49"><path
               d="m 498.501,1066.038 c -6.856,0 -12.17,-1.836 -15.957,-5.502 -3.783,-3.67 -5.68,-8.899 -5.68,-15.668 0,-6.991 1.75,-12.367 5.257,-16.102 3.51,-3.738 8.52,-5.611 15.023,-5.611 6.19,0 10.974,1.626 14.354,4.88 3.377,3.253 5.058,7.935 5.058,14.062 v 6.359 h -25.355 c 0.092,2.313 0.936,4.125 2.515,5.44 1.589,1.322 3.745,1.972 6.479,1.972 2.492,0 4.785,-0.239 6.879,-0.708 2.085,-0.475 4.362,-1.285 6.798,-2.43 v 10.269 c -2.218,1.152 -4.518,1.941 -6.89,2.382 -2.374,0.438 -5.204,0.657 -8.481,0.657 z m -0.845,-33.158 c -1.667,0 -3.059,0.533 -4.186,1.592 -1.134,1.056 -1.784,2.72 -1.982,4.986 h 12.197 c -0.051,-1.996 -0.611,-3.588 -1.689,-4.788 -1.079,-1.199 -2.528,-1.79 -4.34,-1.79 z"
               id="path51"
               inkscape:connector-curvature="0"
               style="fill:#4e4e4e" /></g><g
             id="g53"><path
               d="m 530.893,1065.306 -15.673,-41.424 h 14.805 l 6.965,24.495 c 0.02,0.126 0.072,0.328 0.15,0.625 0.069,0.291 0.143,0.639 0.212,1.036 0.078,0.406 0.143,0.834 0.198,1.288 0.065,0.451 0.096,0.868 0.096,1.254 h 0.246 c 0,-1.258 0.222,-2.638 0.656,-4.125 l 7.293,-24.573 h 14.765 l -15.68,41.424 h -14.033 z"
               id="path55"
               inkscape:connector-curvature="0"
               style="fill:#4e4e4e" /></g><g
             id="g57"><path
               d="m 576.002,1065.306 h -14.115 v -53.449 h 31.353 v 11.591 h -17.238 v 10.201 h 15.891 v 11.588 h -15.891 v 20.069 z"
               id="path59"
               inkscape:connector-curvature="0"
               style="fill:#4e4e4e" /></g><g
             id="g61"><path
               d="m 616.5,1066.038 c -6.849,0 -12.149,-1.836 -15.95,-5.502 -3.783,-3.67 -5.677,-8.899 -5.677,-15.668 0,-6.991 1.751,-12.367 5.257,-16.102 3.51,-3.738 8.513,-5.611 15.023,-5.611 6.19,0 10.975,1.626 14.351,4.88 3.376,3.253 5.054,7.935 5.054,14.062 v 6.359 H 609.2 c 0.1,2.313 0.944,4.125 2.526,5.44 1.583,1.322 3.736,1.972 6.476,1.972 2.488,0 4.785,-0.239 6.883,-0.708 2.078,-0.475 4.35,-1.285 6.794,-2.43 v 10.269 c -2.215,1.152 -4.532,1.941 -6.89,2.382 -2.375,0.438 -5.201,0.657 -8.489,0.657 z m -0.84,-33.158 c -1.661,0 -3.062,0.533 -4.187,1.592 -1.128,1.056 -1.784,2.72 -1.971,4.986 h 12.187 c -0.054,-1.996 -0.615,-3.588 -1.685,-4.788 -1.084,-1.199 -2.527,-1.79 -4.344,-1.79 z"
               id="path63"
               inkscape:connector-curvature="0"
               style="fill:#4e4e4e" /></g><g
             id="g65"><path
               d="m 669.876,1052.58 c 0,4.436 -1.497,7.791 -4.501,10.053 -3,2.266 -7.304,3.404 -12.915,3.404 -3.045,0 -5.701,-0.161 -7.946,-0.496 -2.252,-0.328 -4.542,-0.936 -6.889,-1.804 v -11.444 c 2.204,0.977 4.614,1.783 7.242,2.412 2.618,0.629 4.962,0.943 7.016,0.943 3.079,0 4.611,-0.7 4.611,-2.109 0,-0.734 -0.431,-1.391 -1.292,-1.958 -0.851,-0.574 -3.352,-1.688 -7.488,-3.345 -3.776,-1.565 -6.408,-3.335 -7.908,-5.324 -1.507,-1.979 -2.252,-4.497 -2.252,-7.545 0,-3.848 1.469,-6.849 4.426,-8.991 2.946,-2.153 7.119,-3.222 12.515,-3.222 2.71,0 5.257,0.297 7.645,0.899 2.375,0.598 4.843,1.466 7.413,2.614 l -3.848,9.213 c -1.887,-0.848 -3.883,-1.582 -5.991,-2.177 -2.102,-0.598 -3.811,-0.888 -5.147,-0.888 -2.32,0 -3.475,0.567 -3.475,1.708 0,0.707 0.403,1.316 1.206,1.804 0.813,0.506 3.154,1.524 7.03,3.058 2.871,1.199 5.02,2.371 6.439,3.516 1.411,1.145 2.454,2.491 3.121,4.036 0.66,1.55 0.988,3.422 0.988,5.643 z"
               id="path67"
               inkscape:connector-curvature="0"
               style="fill:#4e4e4e" /></g><g
             id="g69"><path
               d="m 693.436,1054.744 c 1.908,0 4.194,-0.479 6.852,-1.432 v 10.426 c -1.917,0.823 -3.732,1.408 -5.464,1.767 -1.726,0.359 -3.756,0.533 -6.08,0.533 -4.761,0 -8.202,-1.179 -10.294,-3.523 -2.116,-2.358 -3.168,-5.97 -3.168,-10.846 v -17.066 h -4.962 v -5.819 l 6.305,-4.497 3.667,-8.697 h 9.293 v 8.293 h 10.092 v 10.72 h -10.092 v 16.119 c 0,2.675 1.282,4.022 3.851,4.022 z"
               id="path71"
               inkscape:connector-curvature="0"
               style="fill:#4e4e4e" /></g></g><g
           id="g73"><g
             id="g75"><path
               d="m 273.274,1035.265 h 23.072 v 28.81 c -6.267,2.143 -13.157,3.219 -20.659,3.219 -8.24,0 -14.611,-2.389 -19.105,-7.17 -4.497,-4.774 -6.746,-11.588 -6.746,-20.435 0,-8.635 2.461,-15.344 7.385,-20.148 4.928,-4.801 11.825,-7.207 20.697,-7.207 3.367,0 6.539,0.321 9.528,0.953 2.977,0.633 5.585,1.439 7.81,2.409 l -4.573,11.332 c -3.848,-1.893 -8.086,-2.843 -12.686,-2.843 -4.218,0 -7.478,1.37 -9.782,4.115 -2.31,2.734 -3.461,6.653 -3.461,11.755 0,4.996 1.045,8.803 3.13,11.42 2.082,2.625 5.085,3.933 9.013,3.933 2.15,0 4.125,-0.201 5.929,-0.622 v -8.372 h -9.548 v -11.151 h -0.004 z"
               id="path77"
               inkscape:connector-curvature="0"
               style="fill:#4e4e4e" /></g><g
             id="g79"><path
               d="m 348.134,1038.7 c 0,8.926 -2.461,15.798 -7.372,20.626 -4.912,4.825 -11.812,7.241 -20.714,7.241 h -17.297 v -53.463 h 18.503 c 8.582,0 15.208,2.194 19.877,6.585 4.665,4.388 7.003,10.72 7.003,19.011 z m -14.991,0.516 c 0,-4.904 -0.974,-8.536 -2.911,-10.891 -1.938,-2.375 -4.877,-3.55 -8.828,-3.55 h -4.211 v 29.942 h 3.219 c 4.389,0 7.604,-1.271 9.655,-3.82 2.051,-2.544 3.076,-6.443 3.076,-11.681 z"
               id="path81"
               inkscape:connector-curvature="0"
               style="fill:#4e4e4e" /></g><g
             id="g83"><path
               d="m 374.688,1035.265 h 23.073 v 28.81 c -6.268,2.143 -13.148,3.219 -20.66,3.219 -8.244,0 -14.611,-2.389 -19.108,-7.17 -4.49,-4.774 -6.747,-11.588 -6.747,-20.435 0,-8.635 2.465,-15.344 7.393,-20.148 4.924,-4.801 11.821,-7.207 20.7,-7.207 3.352,0 6.534,0.321 9.521,0.953 2.983,0.633 5.587,1.439 7.809,2.409 l -4.573,11.332 c -3.851,-1.893 -8.083,-2.843 -12.692,-2.843 -4.214,0 -7.471,1.37 -9.774,4.115 -2.304,2.734 -3.456,6.653 -3.456,11.755 0,4.996 1.039,8.803 3.123,11.42 2.082,2.625 5.089,3.933 9.016,3.933 2.143,0 4.118,-0.201 5.919,-0.622 v -8.372 h -9.546 v -11.149 z"
               id="path85"
               inkscape:connector-curvature="0"
               style="fill:#4e4e4e" /></g></g><g
           transform="matrix(1.1639369,0,0,1.1639369,54.51096,823.22376)"
           style="font-size:40px;font-style:normal;font-variant:normal;font-weight:normal;font-stretch:normal;text-align:start;line-height:125%;letter-spacing:0px;word-spacing:0px;writing-mode:lr-tb;text-anchor:start;fill:#4e4e4e;fill-opacity:1;stroke:#4e4e4e;stroke-width:1.03098369;stroke-miterlimit:4;stroke-opacity:1;font-family:Nimbus Sans L;-inkscape-font-specification:Nimbus Sans L"
           id="flowRoot3072-4"><path
             d="m 200.25149,270.10038 -26.60773,0 0,-3.95932 10.6597,-10.71509 c 3.24866,-3.28557 5.38983,-5.62978 6.42351,-7.03263 1.03365,-1.40282 1.8089,-2.76873 2.32576,-4.09776 0.51681,-1.32898 0.77523,-2.7595 0.77525,-4.29157 -2e-5,-2.1596 -0.65529,-3.867 -1.96582,-5.1222 -1.31056,-1.27359 -3.12871,-1.9104 -5.45444,-1.91044 -1.67973,4e-5 -3.27638,0.27691 -4.78995,0.83063 -1.49514,0.55378 -3.16562,1.55976 -5.01145,3.01794 l -2.4365,-3.12869 c 3.72858,-3.10097 7.78942,-4.65147 12.18252,-4.65151 3.80241,4e-5 6.78343,0.97833 8.94308,2.93488 2.1596,1.93816 3.23942,4.55002 3.23944,7.83558 -2e-5,2.56574 -0.7199,5.10376 -2.15963,7.61407 -1.43977,2.51036 -4.13469,5.6852 -8.08476,9.52452 l -8.86002,8.6662 0,0.2215 20.82104,0 0,4.26389"
             style="font-size:56.70410538px;fill:#4e4e4e;stroke:#4e4e4e;font-family:Open Sans;-inkscape-font-specification:Open Sans"
             id="path3021"
             inkscape:connector-curvature="0" /><path
             d="m 232.9228,249.8054 c -3e-5,6.99574 -1.10753,12.21945 -3.3225,15.67116 -2.19657,3.45171 -5.56522,5.17757 -10.10596,5.17757 -4.35619,0 -7.66946,-1.76277 -9.93983,-5.28832 -2.27038,-3.544 -3.40557,-8.7308 -3.40557,-15.56041 0,-7.05107 1.09827,-12.28401 3.29482,-15.69884 2.19654,-3.41476 5.54673,-5.12216 10.05058,-5.1222 4.39307,4e-5 7.7248,1.78128 9.99521,5.3437 2.28881,3.5625 3.43322,8.72161 3.43325,15.47734 m -22.12235,0 c -1e-5,5.88824 0.69218,10.1798 2.07657,12.87471 1.38436,2.67647 3.59013,4.0147 6.61732,4.0147 3.06407,0 5.27907,-1.35669 6.64501,-4.07007 1.38436,-2.73183 2.07654,-7.00494 2.07657,-12.81934 -3e-5,-5.81436 -0.69221,-10.06901 -2.07657,-12.76396 -1.36594,-2.71334 -3.58094,-4.07003 -6.64501,-4.07007 -3.02719,4e-5 -5.23296,1.33827 -6.61732,4.0147 -1.38439,2.65803 -2.07658,6.93114 -2.07657,12.81933"
             style="font-size:56.70410538px;fill:#4e4e4e;stroke:#4e4e4e;font-family:Open Sans;-inkscape-font-specification:Open Sans"
             id="path3023"
             inkscape:connector-curvature="0" /><path
             d="m 255.57122,270.10038 -4.48538,0 0,-28.85043 c -2e-5,-2.39956 0.0738,-4.66993 0.2215,-6.81114 -0.38764,0.38766 -0.82142,0.79375 -1.30132,1.21825 -0.47993,0.42458 -2.67647,2.22427 -6.58964,5.39908 l -2.4365,-3.15639 10.71508,-8.27857 3.87626,0 0,40.4792"
             style="font-size:56.70410538px;fill:#4e4e4e;stroke:#4e4e4e;font-family:Open Sans;-inkscape-font-specification:Open Sans"
             id="path3025"
             inkscape:connector-curvature="0" /><path
             d="m 283.64639,245.37539 c 4.26387,3e-5 7.61406,1.06138 10.05058,3.18407 2.45494,2.10428 3.68242,4.99301 3.68245,8.66621 -3e-5,4.19005 -1.33826,7.47564 -4.0147,9.85676 -2.65802,2.38113 -6.33124,3.5717 -11.01964,3.5717 -4.55923,0 -8.03863,-0.72911 -10.43821,-2.18732 l 0,-4.43001 c 1.29208,0.83064 2.89796,1.48591 4.81763,1.96582 1.91966,0.46146 3.81165,0.69219 5.67595,0.69219 3.24866,0 5.76822,-0.76602 7.5587,-2.29807 1.8089,-1.53204 2.71336,-3.74704 2.71338,-6.64501 -2e-5,-5.64824 -3.46096,-8.47237 -10.38283,-8.47239 -1.75355,2e-5 -4.09777,0.26767 -7.03264,0.80294 l -2.38113,-1.52282 1.52282,-18.93828 20.12885,0 0,4.23619 -16.19722,0 -1.02444,12.15484 c 2.1227,-0.42452 4.23619,-0.63679 6.34045,-0.63682"
             style="font-size:56.70410538px;fill:#4e4e4e;stroke:#4e4e4e;font-family:Open Sans;-inkscape-font-specification:Open Sans"
             id="path3027"
             inkscape:connector-curvature="0" /><path
             d="m 346.41408,270.10038 -5.03913,-12.87471 -16.22491,0 -4.98376,12.87471 -4.76226,0 16.00341,-40.64533 3.95932,0 15.92034,40.64533 -4.87301,0 m -6.50657,-17.11091 -4.70689,-12.54246 c -0.60914,-1.58739 -1.23673,-3.53474 -1.88275,-5.84207 -0.4061,1.77203 -0.98754,3.71939 -1.74432,5.84207 l -4.76226,12.54246 13.09622,0"
             style="fill:#4e4e4e;stroke:#4e4e4e"
             id="path3029"
             inkscape:connector-curvature="0" /><path
             d="m 375.73519,261.8218 c -3e-5,2.82414 -1.05215,5.00222 -3.15638,6.53426 -2.10428,1.53205 -5.05761,2.29807 -8.86002,2.29807 -4.02393,0 -7.16185,-0.63682 -9.41377,-1.91044 l 0,-4.26389 c 1.45821,0.73834 3.01794,1.31978 4.6792,1.74432 1.6797,0.42455 3.29481,0.63682 4.84532,0.63681 2.39957,1e-5 4.24541,-0.37839 5.53751,-1.13519 1.29207,-0.77524 1.93811,-1.94735 1.93813,-3.51631 -2e-5,-1.18133 -0.51686,-2.18731 -1.5505,-3.01795 -1.01523,-0.84907 -3.00873,-1.84582 -5.98052,-2.99025 -2.82414,-1.05212 -4.8361,-1.9658 -6.03588,-2.74107 -1.18134,-0.79369 -2.06734,-1.68892 -2.65801,-2.68569 -0.57221,-0.99674 -0.85831,-2.1873 -0.85831,-3.5717 0,-2.47339 1.00598,-4.42075 3.01794,-5.84207 2.01196,-1.43972 4.77148,-2.1596 8.27858,-2.15963 3.26711,3e-5 6.46041,0.66453 9.57989,1.9935 l -1.63356,3.73782 c -3.04565,-1.25514 -5.80518,-1.88272 -8.27858,-1.88275 -2.1781,3e-5 -3.82089,0.34151 -4.92838,1.02444 -1.10751,0.68298 -1.66126,1.62436 -1.66126,2.82413 0,0.81219 0.20304,1.50438 0.60913,2.07657 0.42453,0.57223 1.09826,1.11675 2.02119,1.63356 0.92291,0.51685 2.69491,1.26442 5.31601,2.24269 3.59936,1.31056 6.02664,2.63033 7.28183,3.95932 1.2736,1.32902 1.91041,2.9995 1.91044,5.01145"
             style="fill:#4e4e4e;stroke:#4e4e4e"
             id="path3031"
             inkscape:connector-curvature="0" /><path
             d="m 387.5024,239.75482 0,19.68585 c -1e-5,2.47343 0.56297,4.31926 1.68894,5.53751 1.12595,1.21826 2.88872,1.82738 5.28832,1.82738 3.17482,0 5.49135,-0.86754 6.94958,-2.60263 1.47665,-1.73508 2.21498,-4.56844 2.215,-8.50008 l 0,-15.94803 4.59614,0 0,30.34556 -3.7932,0 -0.6645,-4.07007 -0.24919,0 c -0.9414,1.49513 -2.25194,2.63955 -3.93163,3.43325 -1.66127,0.79371 -3.56248,1.19057 -5.70363,1.19057 -3.69169,0 -6.46044,-0.87677 -8.30627,-2.63032 -1.82738,-1.75354 -2.74107,-4.55921 -2.74107,-8.41701 l 0,-19.85198 4.65151,0"
             style="fill:#4e4e4e;stroke:#4e4e4e"
             id="path3033"
             inkscape:connector-curvature="0" /><path
             d="m 438.72438,270.10038 0,-19.63048 c -2e-5,-2.4734 -0.563,-4.31923 -1.68894,-5.53751 -1.12598,-1.21822 -2.88875,-1.82735 -5.28832,-1.82738 -3.17486,3e-5 -5.50061,0.85834 -6.97726,2.57495 -1.47668,1.71665 -2.21502,4.55 -2.21501,8.50008 l 0,15.92034 -4.59613,0 0,-30.34556 3.73782,0 0.74756,4.15313 0.2215,0 c 0.94137,-1.4951 2.26114,-2.64874 3.95932,-3.46094 1.69816,-0.8306 3.59014,-1.24591 5.67595,-1.24594 3.65473,3e-5 6.40503,0.88603 8.25089,2.658 1.84581,1.75358 2.76872,4.56847 2.76875,8.44471 l 0,19.7966 -4.59613,0"
             style="fill:#4e4e4e;stroke:#4e4e4e"
             id="path3035"
             inkscape:connector-curvature="0" /><path
             d="m 464.86142,270.65413 c -4.3931,0 -7.79867,-1.34746 -10.2167,-4.04238 -2.39959,-2.71338 -3.59939,-6.54349 -3.59938,-11.49034 -1e-5,-5.07603 1.21824,-8.99843 3.65475,-11.76721 2.45496,-2.76872 5.94358,-4.1531 10.4659,-4.15313 1.45819,3e-5 2.9164,0.15693 4.37463,0.47069 1.45819,0.31382 2.60261,0.68299 3.43326,1.1075 l -1.41207,3.90394 c -1.01523,-0.40605 -2.12273,-0.7383 -3.32251,-0.99675 -1.19981,-0.27685 -2.26116,-0.41528 -3.18406,-0.41531 -6.16511,3e-5 -9.24765,3.93166 -9.24765,11.7949 0,3.7286 0.74756,6.58964 2.2427,8.58314 1.51357,1.99351 3.74703,2.99026 6.70038,2.99025 2.52878,10e-6 5.12218,-0.54451 7.78021,-1.63356 l 0,4.07007 c -2.03045,1.05212 -4.58693,1.57819 -7.66946,1.57819"
             style="fill:#4e4e4e;stroke:#4e4e4e"
             id="path3037"
             inkscape:connector-curvature="0" /><path
             d="m 484.35345,270.10038 -4.59613,0 0,-30.34556 4.59613,0 0,30.34556 m -4.98376,-38.56876 c 0,-1.05209 0.25841,-1.81811 0.77525,-2.29807 0.51683,-0.49833 1.16287,-0.74752 1.93813,-0.74756 0.73833,4e-5 1.37514,0.24923 1.91044,0.74756 0.53529,0.49842 0.80293,1.26444 0.80294,2.29807 -10e-6,1.0337 -0.26765,1.80895 -0.80294,2.32575 -0.5353,0.49841 -1.17211,0.7476 -1.91044,0.74757 -0.77526,3e-5 -1.4213,-0.24916 -1.93813,-0.74757 -0.51684,-0.5168 -0.77525,-1.29205 -0.77525,-2.32575"
             style="fill:#4e4e4e;stroke:#4e4e4e"
             id="path3039"
             inkscape:connector-curvature="0" /><path
             d="m 520.34729,254.89991 c -3e-5,4.94685 -1.24597,8.81388 -3.73782,11.60109 -2.4919,2.76875 -5.93438,4.15313 -10.32745,4.15313 -2.7134,0 -5.12221,-0.63682 -7.22645,-1.91044 -2.10427,-1.27363 -3.7286,-3.101 -4.87301,-5.48214 -1.14443,-2.38112 -1.71663,-5.16833 -1.71663,-8.36164 0,-4.94682 1.2367,-8.79539 3.71013,-11.54571 2.47341,-2.76872 5.90667,-4.1531 10.29977,-4.15313 4.2454,3e-5 7.61405,1.41209 10.10596,4.2362 2.5103,2.82415 3.76547,6.64503 3.7655,11.46264 m -23.1191,0 c -10e-6,3.87627 0.77524,6.82961 2.32575,8.86002 1.55049,2.03042 3.8301,3.04563 6.83883,3.04563 3.00869,0 5.2883,-1.00598 6.83882,-3.01794 1.56894,-2.03042 2.35342,-4.99298 2.35344,-8.88771 -2e-5,-3.85778 -0.7845,-6.78343 -2.35344,-8.77695 -1.55052,-2.01194 -3.84859,-3.01792 -6.8942,-3.01795 -3.00873,3e-5 -5.2791,0.98755 -6.81114,2.96257 -1.53205,1.97507 -2.29807,4.91918 -2.29806,8.83233 m 5.31601,-19.85197 c 0.88598,-1.14439 1.83659,-2.52876 2.85182,-4.15314 1.03365,-1.62429 1.84581,-3.03635 2.4365,-4.23619 l 5.59289,0 0,0.58144 c -0.8122,1.19983 -2.02122,2.6765 -3.62707,4.43001 -1.6059,1.75358 -2.99951,3.11027 -4.18082,4.07007 l -3.07332,0 0,-0.69219"
             style="fill:#4e4e4e;stroke:#4e4e4e"
             id="path3041"
             inkscape:connector-curvature="0" /><path
             d="m 549.14233,270.10038 0,-19.63048 c -2e-5,-2.4734 -0.563,-4.31923 -1.68894,-5.53751 -1.12598,-1.21822 -2.88875,-1.82735 -5.28832,-1.82738 -3.17485,3e-5 -5.5006,0.85834 -6.97726,2.57495 -1.47668,1.71665 -2.21501,4.55 -2.21501,8.50008 l 0,15.92034 -4.59613,0 0,-30.34556 3.73782,0 0.74756,4.15313 0.2215,0 c 0.94137,-1.4951 2.26114,-2.64874 3.95932,-3.46094 1.69816,-0.8306 3.59014,-1.24591 5.67595,-1.24594 3.65474,3e-5 6.40503,0.88603 8.25089,2.658 1.84581,1.75358 2.76873,4.56847 2.76876,8.44471 l 0,19.7966 -4.59614,0"
             style="fill:#4e4e4e;stroke:#4e4e4e"
             id="path3043"
             inkscape:connector-curvature="0" /></g></g></g></g><path
     fill="#168B58"
     d="M141.413,1085.779l-12.032,20.115l21.535,15.307l10.985-18.243l-20.488-33.916  C144.175,1073.637,144.175,1081.172,141.413,1085.779z"
     id="path87" /><path
     fill="#D7AB56"
     d="M161.902,1102.957l-10.985,18.243l22.646,16.096c2.252-4.651,2.169-11.422-0.4-15.705L161.902,1102.957z"
     id="path89" /></svg>